<?xml version="1.0" encoding="utf-8"?>
<!-- Generator: Adobe Illustrator 22.1.0, SVG Export Plug-In . SVG Version: 6.00 Build 0)  -->
<svg version="1.1" xmlns="http://www.w3.org/2000/svg" xmlns:xlink="http://www.w3.org/1999/xlink" x="0px" y="0px"
	 viewBox="0 0 1400 980" style="enable-background:new 0 0 1400 980;" xml:space="preserve">
<style type="text/css">
	.st0{fill:#FFFFFF;}
	.st1{fill:#FDF1F4;}
	.st2{fill:#E5D1D7;}
	.st3{fill:#8FA6D1;}
	.st4{fill:#CBE0F4;}
	.st5{fill:#E5A1A1;}
	.st6{fill:#4389C8;}
	.st7{fill:#557490;}
	.st8{fill:#112E4F;}
	.st9{fill:#1A4072;}
	.st10{fill:#87532C;}
	.st11{fill:#0D1D2A;}
	.st12{fill:#58301A;}
	.st13{fill:#3F5F83;}
	.st14{fill:#092339;}
	.st15{fill:#416780;}
	.st16{fill:#0C1822;}
	.st17{fill:#5A78A3;}
	.st18{fill:#391F13;}
	.st19{fill:none;}
	.st20{fill:#AF7044;}
	.st21{fill:#96342F;}
	.st22{fill:#326AA6;}
	.st23{fill:#D77168;}
	.st24{fill:#2D3E51;}
	.st25{fill:#FDC73D;}
	.st26{fill:#CAE5F7;}
	.st27{fill:#CB872D;}
	.st28{fill:#A04949;}
	.st29{fill:#96C7EB;}
	.st30{fill:#3F5A76;}
	.st31{fill:#1D3160;}
	.st32{fill:#F8AD92;}
	.st33{fill:#CD7B62;}
	.st34{fill:#8AA9B9;}
	.st35{fill:#F9D0CE;}
</style>
<g id="Background">
	<rect x="0" class="st0" width="1400" height="980"/>
	<g id="Layer_1_1_">
	</g>
	<g id="Layer_2">
	</g>
	<g id="Layer_1_2_">
	</g>
</g>
<g id="object">
	<g>
		<path class="st1" d="M122.7,713.4C106,661.9,85.3,611.3,76.9,557.9c-6.3-40.1,29.3-69,23.8-115.3c-13.9-117.4,5-149.2,29.7-178.6
			c59.4-70.6,275.4-71.2,363.7-41.5c21.4,7.2,41.3,18.5,63,24.9c119.9,35.5,248-83.4,366.1-42.5c21.6,7.5,41.3,20.1,63.4,26
			c52.4,14.1,107.7-11.2,161.9-7.2c50.8,3.8,98.6,35.4,121.1,80.2c16.5,32.9,24.8,67.4,38,103.2c11.1,30.1,40.5,130.1,30.4,164.1
			c-52,175.5-3.7,270.9-21.6,269.2c-72.5-7-131.7,17.4-177.9,19.5c-131,6-262.1-6.2-393.2-11.8c-110.2-4.7-220.5-4.6-330.7-2.7
			c-54,1-108,2.1-162,4c-26.3,0.9-62,7.4-84.6-10C136.5,814.9,134.2,748.8,122.7,713.4z"/>
		<path class="st2" d="M1274.9,612.7c-27.2,36.1-46.3,80.9-70.6,120.3s-56.5,75-95.2,80.9c-28.5,4.4-57-7.8-85.7-9.7
			c-48.1-3.1-98.1,22.6-143.2,0.8c-44.4-21.4-76.9-86.2-124.2-83.1c-10.1,0.7-20.2,4.6-30.2,2.9c-20.8-3.5-34.3-28.9-50.5-46.3
			c-38.5-41.3-95.2-37.3-143-18.6c-47.8,18.8-93.2,50.1-142.8,57.2c-38.6,5.6-78.5-4.2-112.8-27.8c-37.7-25.8-68-67-105.8-92.7
			c-27-18.4-61.5-26.5-89.3-14.5c10,44.5,27,87.5,41.1,131.1c11.5,35.4,13.8,101.5,45.5,126c22.5,17.4,58.2,10.9,84.6,10
			c54-1.9,108-3.1,162-4c110.2-2,220.5-2,330.7,2.7c131.1,5.6,262.1,17.8,393.2,11.8c46.1-2.1,105.4-26.5,177.9-19.5
			c17.9,1.7-30.4-93.6,21.6-269.2c1.4-4.8,2.1-10.9,2.1-18C1315.8,567.7,1293.5,587.9,1274.9,612.7z"/>
		<g>
			<g>
				<g>
					<path class="st3" d="M155.2,839.5h-33.9c0,0-52.4-87.3-33.8-162.7C87.4,676.9,172.2,702.4,155.2,839.5z"/>
					<g>
						<path class="st4" d="M89.7,718.4c2.7,1.3,5.2,3.4,7.6,5.2c2.3,1.7,4.6,3.5,6.8,5.3c3.2,2.6,6.4,5.4,9.4,8.2
							c-2.2-6-4.6-12-7-17.9c-4.6-11.1-9.4-22.2-14.8-32.9c-0.3-0.6,0.6-1.2,0.9-0.5c8.7,17,16.6,34.2,23.3,52.1
							c-0.5-12.1,1.6-24.2-0.8-36.2c-0.1-0.6,0.8-0.9,1-0.3c3.3,13.3,0.5,27,1.9,40.4c0,0.3-0.1,0.6-0.4,0.7
							c0.1,0.2,0.1,0.3,0.2,0.5c4.1,11.5,7.8,23.1,11.1,34.9c2.9-15.2,4.2-30.5,5-45.9c0-0.4,0.6-0.4,0.6,0
							c0.7,16.6-1.3,33.4-4.6,49.7c2,7.4,3.8,14.9,5.4,22.4c0.7,3.1,1.3,6.2,2,9.3c5.2-13,8.4-26.7,10.2-40.5c0.1-0.4,0.7-0.4,0.6,0
							c-0.9,15-4.7,29.6-10.2,43.5c1.5,7.4,2.7,14.9,3.6,22.4c0.1,1.2-1.8,1.4-2,0.3c-1.3-7.4-2.4-14.7-3.8-22.1
							c-4.6-4.3-9-8.7-13.4-13.2c-2.3-2.3-4.6-4.6-6.8-6.9c-2.1-2.1-4.4-4.2-6.2-6.6c-0.5-0.7,0.6-1.4,1.2-0.9
							c2.5,2,4.7,4.6,6.9,6.9c2.2,2.2,4.4,4.4,6.5,6.6c3.7,3.7,7.5,7.4,11.2,11.1c-0.4-1.8-0.7-3.7-1.1-5.5
							c-1.8-8.8-3.9-17.6-6.3-26.4c-9.2-8.6-19.3-16-30-22.7c-1-0.6-0.1-2.1,0.9-1.6c10.1,5.9,19.5,13.1,28.2,21
							c-0.1-0.2-0.1-0.5-0.2-0.7c-3.4-12.6-7.4-25-11.8-37.2c-3.8-3.7-7.7-7.2-11.8-10.5c-2.4-2-4.9-3.9-7.4-5.8
							c-2.3-1.7-4.9-3.2-6.9-5.1C88.1,719,89,718.1,89.7,718.4z"/>
					</g>
				</g>
				<g>
					<path class="st5" d="M220.1,839.1c4-12.6-12.6-27.1-19.8-38.2c-10.1-15.8-15.8-34.5-16-53.3c-0.2-17.7,4-36.5-3.6-52.4
						c-5.4-11.4-16.1-19.3-23.4-29.5c-7.2-10.1-11-22.4-10.8-34.8c0.2-12.7,4.5-26.2-0.8-37.8c-7-15.5-27.7-20.6-35.5-35.6
						c-3.5-6.8-4-14.8-7.2-21.7c-6-13-20-20-33.1-25.9c-5.5-2.5-15.9,7.4-14.8,13.3c1.1,5.9,5.6,10.5,9.4,15.2
						c6.8,8.6,11.6,19.2,11.5,30.2c-0.1,7-2.2,13.8-3.1,20.7C71.1,603,74,617.2,81,629c6.4,10.9,16,19.7,21.3,31.1
						c6.4,13.9,5.7,30,3.4,45.2c-1.2,8.2-2.8,17,0.6,24.5c2.6,5.7,7.6,9.8,11.6,14.4c22.2,25.6,15.3,66.5,34,94.8H220.1z"/>
					<path class="st2" d="M166.1,801.1c-3.5-6-3.9-12.6-4.4-19.3c-0.5-5.6-1.6-10.9-3.7-16.1c-4-9.6-10.4-18.2-13.3-28.2
						c-1.4-4.9-1.6-9.8-1.4-14.7c1.6-2.6,5.7-4.7,7.6-6.5c2.1-1.9,3.9-4.1,5.5-6.5c3.2-4.8,4.9-10.2,5.4-15.9c0.1-1.4-2-1.4-2.2,0
						c-0.8,8-4.3,15.4-10.3,20.8c-1.7,1.6-4,2.8-5.9,4.4c0.4-5.8,0.9-11.7,0.1-17.5c-1.4-11.3-8.3-20.9-9.2-32.4
						c-0.5-5.8-0.1-11.7,0.1-17.5c0.1,0,0.1-0.1,0.2-0.1c3.3-2.8,6.2-6,8.8-9.6c0.8-1.1-1.1-2.2-1.9-1.1c-2.1,2.8-4.5,5.4-7.1,7.8
						c0.1-4.4,0-8.8-0.8-13.2c-1.5-9.1-6.6-16.3-11.1-24c0-0.2,0-0.4-0.1-0.5c-0.5-1-1-1.9-1.7-2.7c-0.3-0.6-0.7-1.3-1-1.9
						c-5.3-10.6-6.6-22.7-10.1-33.9c-6.6-20.7-21.8-36.2-36.9-51.1c-0.4-0.4-1,0.2-0.6,0.6c8.5,9,17.2,18.1,24.2,28.4
						c7.2,10.6,11.4,21.8,14.3,34.2c1.7,7.2,3.6,14.1,6.4,20.6c-4.9-3-11.5-4.2-16.2-6.5c-8-3.8-13.8-10.5-17.4-18.4
						c-0.2-0.4-0.8-0.1-0.7,0.3c2.3,7.3,7.3,13.8,13.7,18.1c3.9,2.6,8.2,4,12.5,5.6c4.4,1.6,7.7,3.6,10.8,6.7
						c0.7,1.4,1.5,2.7,2.3,4.1c3,4.8,6.1,9.6,7.9,15.1c1.8,5.6,2.2,11.6,2.1,17.4c0,1.3,0,2.5-0.1,3.8c-5.3-4.8-13.5-4.8-20-7.2
						c-8.4-3.2-14.4-10.8-19.7-17.7c-0.3-0.4-1,0.1-0.7,0.6c4.3,6.7,8.8,13.6,15.9,17.8c7.8,4.6,18,3.2,24.5,10.2
						c-0.3,8.4-0.5,16.8,2,25c1.6,5.3,4.1,10.2,5.8,15.4c1.8,5.9,2,11.9,1.6,18c-0.2,3.1-0.5,6.3-0.6,9.4c-0.1,0.4-0.2,0.8-0.3,1.2
						c-5-3.9-10.5-7.1-15.3-11.3c-5.6-4.9-10.8-12.2-9.7-20c0.1-0.6-0.9-0.9-1-0.3c-3.2,17.4,15.1,25.5,26.2,34.7
						c0,1.3,0.1,2.6,0.2,3.9c0.5,4.7,1.8,9.1,3.6,13.4c2.8,6.7,6.7,12.9,9.7,19.6c-3.5-2.3-7.8-3.5-11.2-5.6
						c-6.8-4-10.3-10.1-13.5-17.1c-0.3-0.6-1.3-0.3-1.2,0.3c0.8,6.6,5.3,12.8,10.4,16.9c5.6,4.5,12.8,5.9,17.8,11.2
						c0.1,0.1,0.1,0.1,0.2,0.2c0.3,0.8,0.5,1.6,0.7,2.4c2,7.2,1.6,14.6,3.1,21.6c-3.1-2.2-7.1-3.1-10.5-4.6
						c-5.6-2.5-10.1-7.2-12.2-12.9c-0.3-0.9-1.7-0.5-1.4,0.4c1.6,5.1,4.5,9.4,8.9,12.5c5,3.5,11.3,4.2,15.9,8.5
						c0.2,0.2,0.4,0.3,0.7,0.3c0.6,1.6,1.3,3.1,2.2,4.7c4.6,7.7,12.1,14.5,12.2,24.1c0,1.8,2.6,1.7,2.7,0
						C179.4,816.8,170.8,809.3,166.1,801.1z"/>
				</g>
			</g>
			<g>
				<g>
					<path class="st3" d="M888.3,842.5l33.9-1.3c0,0,49.1-89.2,27.8-163.8C949.9,677.4,866.2,706.1,888.3,842.5z"/>
					<g>
						<path class="st4" d="M949.2,719c-2.7,1.4-5.1,3.6-7.4,5.5c-2.2,1.8-4.4,3.7-6.6,5.5c-3.1,2.8-6.2,5.6-9.1,8.6
							c2-6.1,4.1-12.1,6.3-18.1c4.2-11.2,8.6-22.5,13.5-33.4c0.3-0.6-0.6-1.1-0.9-0.5c-8.1,17.3-15.3,34.8-21.4,52.9
							c0.1-12.1-2.5-24.2-0.6-36.2c0.1-0.6-0.9-0.9-1-0.2c-2.8,13.4,0.5,27-0.4,40.5c0,0.3,0.1,0.6,0.4,0.7
							c-0.1,0.2-0.1,0.3-0.2,0.5c-3.7,11.6-7,23.4-9.8,35.2c-3.5-15-5.4-30.3-6.7-45.7c0-0.4-0.6-0.4-0.6,0
							c-0.1,16.7,2.5,33.4,6.4,49.5c-1.7,7.5-3.2,15-4.6,22.6c-0.6,3.1-1.1,6.2-1.6,9.3c-5.7-12.7-9.4-26.4-11.7-40.1
							c-0.1-0.4-0.7-0.4-0.6,0c1.4,15,5.7,29.4,11.9,43.1c-1.2,7.5-2.2,15-2.8,22.6c-0.1,1.2,1.9,1.4,2.1,0.2c1-7.4,1.9-14.8,3-22.2
							c4.4-4.4,8.7-9.1,12.9-13.7c2.2-2.4,4.4-4.8,6.6-7.2c2-2.2,4.3-4.4,5.9-6.9c0.5-0.8-0.6-1.3-1.2-0.9c-2.5,2.1-4.5,4.7-6.7,7.1
							c-2.1,2.3-4.2,4.6-6.3,6.9c-3.6,3.9-7.2,7.7-10.8,11.5c0.3-1.9,0.6-3.7,0.9-5.6c1.5-8.9,3.3-17.8,5.3-26.6
							c8.9-9,18.7-16.7,29.1-23.8c1-0.7,0-2.2-1-1.5c-9.9,6.2-19,13.8-27.4,22.1c0.1-0.2,0.1-0.5,0.2-0.7c3-12.7,6.5-25.2,10.4-37.6
							c3.7-3.8,7.5-7.4,11.4-10.9c2.3-2.1,4.7-4.1,7.2-6c2.2-1.8,4.7-3.3,6.7-5.3C950.8,719.5,949.9,718.6,949.2,719z"/>
					</g>
				</g>
				<g>
					<path class="st5" d="M823.4,844.4c-4.4-12.4,11.6-27.5,18.3-38.9c9.6-16.2,14.5-35.1,14-53.9c-0.4-17.7-5.4-36.3,1.7-52.5
						c5-11.6,15.4-19.9,22.3-30.4c6.8-10.3,10.2-22.8,9.5-35.2c-0.7-12.7-5.4-26-0.6-37.8c6.4-15.7,26.9-21.6,34.2-36.9
						c3.3-6.9,3.5-14.9,6.4-22c5.5-13.2,19.3-20.7,32.1-27.1c5.4-2.7,16.2,6.8,15.3,12.8s-5.3,10.7-8.8,15.6
						c-6.5,8.9-10.9,19.7-10.4,30.6c0.4,7,2.7,13.7,3.8,20.6c2.3,13.6-0.1,27.9-6.7,40c-6,11.1-15.3,20.3-20.1,31.9
						c-5.9,14.1-4.6,30.2-1.7,45.2c1.5,8.2,3.5,16.8,0.3,24.5c-2.3,5.7-7.2,10-11.1,14.9c-21.2,26.4-12.9,67-30.5,96L823.4,844.4z"
						/>
					<path class="st2" d="M936.4,551.4c6.6-10.5,14.9-20,23.1-29.3c0.4-0.4-0.3-1-0.7-0.6c-14.5,15.5-29.1,31.5-35,52.4
						c-3.1,11.4-4,23.4-8.9,34.3c-0.3,0.7-0.6,1.3-0.9,2c-0.6,0.8-1.2,1.7-1.6,2.7c-0.1,0.2-0.1,0.4-0.1,0.5
						c-4.2,7.9-9,15.2-10.2,24.4c-1.4,11.2,1.1,22.4,0.6,33.7c-0.5,11.6-7,21.4-8,32.8c-1.1,12,3.2,23.9,0.3,35.8
						c-2.5,10.2-8.6,19-12.3,28.7c-2,5.3-2.9,10.6-3.1,16.2c-0.3,6.8-0.5,13.3-3.7,19.5c-4.4,8.4-12.8,16.2-11.6,26.4
						c0.2,1.7,2.7,1.7,2.7-0.1c-0.2-9.6,7-16.6,11.3-24.5c0.8-1.6,1.5-3.1,2-4.7c0.2-0.1,0.4-0.2,0.6-0.4c4.4-4.4,10.7-5.4,15.5-9.1
						c4.3-3.3,6.9-7.7,8.4-12.8c0.3-0.9-1.1-1.2-1.4-0.3c-1.9,5.8-6.3,10.7-11.7,13.4c-3.4,1.7-7.3,2.7-10.4,5
						c1.3-7.1,0.6-14.5,2.3-21.7c0.2-0.8,0.4-1.6,0.6-2.4c0.1-0.1,0.1-0.1,0.2-0.2c4.8-5.5,11.9-7.2,17.4-11.9
						c4.9-4.3,9.2-10.6,9.7-17.3c0.1-0.7-1-0.9-1.3-0.3c-3,7-6.2,13.3-12.9,17.6c-3.3,2.1-7.6,3.6-11,6c2.8-6.7,6.4-13.1,9-19.9
						c1.7-4.4,2.8-8.9,3.1-13.5c0.1-1.3,0.1-2.6,0.1-4c10.7-9.7,28.7-18.4,24.9-35.7c-0.1-0.7-1.1-0.3-1,0.3
						c1.4,7.7-3.6,15.3-9,20.4c-4.7,4.4-10.2,7.9-15.1,12c-0.2-3.6-0.7-7.2-1.1-10.7c-0.6-6.1-0.7-12.1,0.9-18
						c1.5-5.3,3.8-10.3,5.2-15.6c2.2-8.2,1.6-16.6,1-25c6.2-7.2,16.4-6.2,24.1-11.1c6.9-4.4,11.1-11.4,15.2-18.3
						c0.3-0.5-0.4-1-0.8-0.5c-5.1,7.1-10.7,15-19,18.4c-6.5,2.7-14.6,2.9-19.7,8c-0.1-1.3-0.2-2.5-0.2-3.8
						c-0.3-5.9-0.1-11.8,1.5-17.5c1.6-5.5,4.5-10.4,7.3-15.4c0.8-1.4,1.5-2.8,2.2-4.2c3-3.3,6.2-5.4,10.6-7.1
						c4.3-1.7,8.5-3.3,12.3-6c6.2-4.5,11-11.1,13-18.6c0.1-0.4-0.5-0.7-0.7-0.3c-3.4,8.1-8.9,14.9-16.7,19.1
						c-4.6,2.4-11.1,3.9-15.9,7.1c2.6-6.7,4.2-13.6,5.7-20.9C925.8,573.6,929.6,562.2,936.4,551.4z"/>
				</g>
			</g>
		</g>
		<path class="st6" d="M1339.9,842.5c-0.3-0.9-1-1.5-1.7-2c-3.7-2.8-8.3-3.5-12.6-4c-5.5-0.7-1198-3.6-1198-3.6v2.4
			c-4.3,0.3-8.5,0.7-12.8,1.2c-4.4,0.5-8.9,1.2-12.6,4c-0.7,0.5-1.4,1.1-1.7,2c-1.2,3,2.1,5.8,4.9,6.2c2.8,0.5,6.2,0.7,7.3,3.7
			c0.7,2,0.2,4.8,1.6,6.2c0.6,0.6,1.3,0.8,2.1,0.9c9.5,1.9,1177.7,1.2,1177.7,1.2c0.5,0,1,0.1,1.5,0.1c9.6,1,19.2,0.6,28.7-1.4
			c0.7-0.1,1.5-0.3,2.1-0.9c1.4-1.4,0.8-4.2,1.6-6.2c1.1-3.1,4.5-3.3,7.3-3.7C1337.8,848.3,1341.1,845.5,1339.9,842.5z"/>
		<g>
			<path class="st3" d="M1134.3,704.4c0.7-6.1,2.5-12,3.3-18c0.8-6.1,0.5-12.6-2.7-17.8c10.9,2.5,19.7,11.2,24.7,21.3
				c4.9,10.1,6.4,21.5,6.8,32.7c0.2,6.7,2.4,22.9-1.3,28.7c-4.3,6.7-11.3-0.4-15.6-4.8C1138.6,735.6,1132.6,719.8,1134.3,704.4z"/>
			<path class="st3" d="M1158.4,721.8c-0.7-11.6,8.3-22,8.4-33.6c0.2-15.9-15.8-31.3-8.9-45.6c3.1-6.4,10.2-10.4,12.6-17.1
				c2.4-6.7-0.5-14-0.7-21c-0.3-11.2,6.6-21.5,15.4-28.4c8.8-6.8,19.5-10.7,30-14.5c-10.3,4.3-16.2,15.6-17.2,26.7
				c-1,11.1,1.9,22.1,4.5,32.9c2.6,10.8,5.1,22.1,3.1,33c-1.5,8.1-5.4,16-5,24.2c0.5,11.4,9.2,22.2,6.5,33.3
				c-1.1,4.3-3.7,8-6.3,11.6c-5.2,7.1-14.7,27.7-25,25.6C1167.3,747.4,1158.4,729.6,1158.4,721.8z"/>
			<path class="st3" d="M1242.3,690.6c5.9-1.5,12.1-1.9,18-3.3s11.9-4,15.7-8.7c1.5,11.1-3.5,22.4-11.2,30.6s-17.9,13.6-28.3,17.8
				c-6.2,2.6-20.6,10.3-27.3,8.9c-7.7-1.7-3.6-10.7-1-16.3C1214.7,705.6,1227.3,694.3,1242.3,690.6z"/>
			<g>
				<path class="st7" d="M1261.1,692.9c-7.9,5.4-16.7,7.7-25.4,11.5c-4.6,2-8.8,4.5-12,8.1c0.5-3.7,1.9-7.1,4.2-10.1
					c0.9-1.1-0.7-2.7-1.5-1.5c-3.2,4-4.9,8.7-5,13.7c-2.8,3.9-4.9,8.1-6.4,12.6c-0.1,0.1-0.2,0.3-0.2,0.4c-0.2-2.2,0.9-7.4,1-8.3
					c0.5-2.8,1-5.5,2.6-7.9c0.8-1.2-1.1-2.3-1.9-1.1c-2.2,3.3-2.8,7.4-3.3,11.3c-0.3,2.1-1.3,6.1,0.1,8.1c-3.2,4.9-6.8,9.5-10.6,14
					c-3.7,4.3-7.7,8.4-11.9,12.3c-2.1,1.9-4.3,3.8-6.5,5.6c-2,1.6-4,3.4-6.1,3.9c0.2-6.6,0.8-13.2,2-19.8c0.6-3.6,1.4-7.2,2.2-10.8
					c6-4.1,11.3-8.9,16-14.4c1.2-1.4-0.8-3.4-2-2c-3.9,4.6-8.2,8.7-13,12.2c1.5-6.4,3.1-12.7,4.5-19.1c1.4-0.9,2.3-2.5,3.4-3.9
					c2.8-3.4,5.6-6.8,8.4-10.3c1.2-1.4-0.8-3.4-2-2c-2.1,2.5-4.1,5-6.2,7.5c-0.5,0.6-1.6,2.3-2.7,3.8c0.8-4.8,1.4-9.6,1.7-14.5
					c0.2-5.7,0.1-11.4-0.3-17.1c4-7.2,7.9-14.5,11.9-21.7c0.9-1.6-1.6-3-2.5-1.4c-3.3,6-6.6,12-9.8,18c-1.1-12.1-3-24.2-4-36.2
					c2.8-6,5.6-12,8.4-17.9c0.8-1.6-1.7-3.1-2.5-1.4c-2.1,4.5-4.2,9.1-6.3,13.6c-0.8-13.9-0.1-27.7,4.6-41.3
					c0.6-1.7-2.1-2.5-2.7-0.8c-4.2,12-5.2,24.4-4.8,36.8c-1.4-5.6-2.6-11.3-3.5-17c-0.3-1.8-3-1-2.7,0.8c1.5,9.5,3.7,18.9,6.5,28.1
					c0.1,0.3,0.3,0.5,0.5,0.7c1,11,2.6,22.1,3.6,32.9c0,0.2,0,0.4,0.1,0.6c-3.5-8-7-16-10.4-24c-0.7-1.7-3.2-0.2-2.5,1.4
					c4.4,10,8.7,20.1,13.1,30.1c0.1,0.2,0.2,0.3,0.3,0.4c0.5,10,0.2,19.9-1.4,29.8c-4-9.7-8-19.3-12-29c-0.7-1.7-3.4-0.9-2.7,0.8
					c4.5,10.9,9,21.8,13.5,32.8c0.1,0.2,0.2,0.3,0.3,0.5c-0.1,0.3-0.1,0.7-0.2,1c-1.2,5.6-2.6,11.2-4,16.8c-3.3-7-6-14.2-8.2-21.6
					c-0.5-1.8-3.2-1-2.7,0.8c2.5,8.7,5.8,17.1,9.9,25.2c-1.7,7.3-3.2,14.6-3.9,22.1c-0.3,3.1-0.5,6.2-0.6,9.3c-0.7-0.4-1.3-1-2-1.9
					c-4.7-6.5-9.1-13.4-12.7-20.6c0.5-5.8,1.2-11.7,2.3-17.4c0.3-1.8-2.4-2.6-2.7-0.8c-0.8,4.4-1.5,8.8-2,13.3
					c-1.7-3.8-3.3-7.6-4.5-11.5c0.1-0.1,0.1-0.3,0.2-0.4c1-7,2.2-14,3.6-21c0.3-1.8-2.4-2.6-2.7-0.8c-1,5.3-2,10.7-2.8,16
					c-2-8.1-3-16.4-2.3-24.9c0.1-1.8-2.7-1.8-2.8,0c-0.6,8.5,0.2,16.9,2.2,25.1c-2.1-2.3-3.9-4.7-5.6-7.4c-0.9-1.6-3.4-0.1-2.5,1.4
					c2.6,4.3,5.7,8.1,9.5,11.4c1,3.2,2.1,6.3,3.4,9.3c0.8,1.9,1.7,3.8,2.6,5.7c-3.7-3-6.9-6.6-9.5-10.8c-1-1.5-3.4-0.1-2.5,1.4
					c3.6,5.7,8.2,10.4,13.8,14.2c0.3,0.2,0.5,0.2,0.8,0.2c1.5,2.7,3,5.4,4.6,8c2,3.3,4.1,6.4,6.3,9.6c1.3,1.9,2.7,4.4,4.8,5.5
					c0.2,0.1,0.4,0.2,0.6,0.2c0,12.2,1.6,24.4,4.6,36.3c0.5,1.8,3.2,1,2.7-0.8c-3-11.6-4.5-23.4-4.5-35.3c3.3-0.7,6.4-4.2,8.7-6.1
					c5.2-4.3,10.1-8.9,14.7-13.9c6-6.5,11.4-13.6,16.1-21.1c12.1-3.7,23.8-8.5,35-14.5c1.2-0.7,0.1-2.6-1.1-1.9
					c-10.3,5.5-21,10-32.1,13.5c1.9-3.1,3.6-6.3,5.3-9.5c0,0,0-0.1,0-0.1c3.1,0.1,6.2-0.2,9.2-0.8c1.4-0.3,0.8-2.4-0.6-2.1
					c-2.5,0.6-5,0.8-7.6,0.8c4.5-4.7,10.8-7.2,17.1-9.4c6.9-2.4,13.3-5.1,19.3-9.2C1263.3,694,1262.2,692.1,1261.1,692.9z"/>
				<polygon class="st8" points="1144.3,791.9 1150.3,851.8 1207.6,851.8 1213.7,799.3 				"/>
				<rect x="1129.6" y="784.5" class="st9" width="98.8" height="14.8"/>
			</g>
		</g>
		<g>
			<path class="st3" d="M208.1,763.3c-3.5-10.5-2.5-22,0.3-32.7c1.9-7.5,4.7-15.3,2.6-22.8c-1.7-5.9-6.1-10.5-9.8-15.4
				c-12.1-16.1-16.5-37.6-11.6-57.1c4.9-19.6,18.5-37.6,16.7-57.7c-1.3-15.1-11.2-28.6-11.5-43.7c-0.4-21,22-39.2,42.5-34.6
				c10.2,19.5-3.3,43.8,2.3,65.1c4.5,16.8,20,28.6,25.5,45.1c6.6,19.9-2.9,41.8,1.1,62.3c3.5,18.1,17.3,34.7,13.8,52.8
				c-2.7,14-15.7,26.6-11.9,40.3c0.9,3.2,2.7,6.4,2.1,9.7c-0.8,4-5,6.3-8.8,7.8C239.8,790.3,216.3,787.9,208.1,763.3z"/>
			<g>
				<path class="st3" d="M263.5,713c8-6.8,18.3-11.7,23.1-21c4.6-8.8,3.4-20,8.6-28.5c6.2-10,19.2-13,28.6-20.1
					c9.2-6.9,14.7-17.7,23.2-25.5c8.5-7.7,23.3-11.4,30.8-2.7c-14.5,13.7-29.8,28.7-33.4,48.3c-1.7,9.2-0.7,19.1-4.8,27.6
					c-4.9,10.1-16,15.8-22.1,25.3c-7.4,11.4-6.6,26.5-13.1,38.5c-8.1,14.9-37.1,31.7-52.2,17.5C235.7,756.7,249.5,725,263.5,713z"/>
				<path class="st7" d="M336.2,652.3c-11.3,3.6-15.6,14.7-19.3,24.9c-0.8,2.2-1.6,4.2-2.5,6.2c-0.3-5.9,0.3-11.6,1.9-17.4
					c0.5-2-2.6-2.9-3.2-0.9c-2,7.5-2.6,15.1-1.6,22.8c0,0.2,0.1,0.4,0.2,0.6c-1.7,2.8-3.8,5.4-6.6,7.7c-3.1,2.7-6.5,4.9-9.7,7.5
					c1.4-3.8,3.3-7.4,5.7-10.7c1.2-1.7-1.6-3.4-2.8-1.7c-3.6,5-6.1,10.5-7.5,16.5c0,0,0,0,0,0.1c-9.3,9.6-8.2,23.4-12,35.4
					c-1,3.2-2.2,6.2-3.6,9.2c-0.1-0.3-0.2-0.8-0.4-1.3c-0.6-1.9-0.9-4.1-1.2-6.1c-0.8-5.3-1-10.6-0.8-16c0.1-2.1-3.2-2.1-3.3,0
					c-0.2,6,0.1,12,1.1,17.9c0.4,2.4,0.6,7.2,2.7,9.3c-4.5,8.3-10.5,15.7-17.6,21.9c-1.6,1.4,0.7,3.7,2.3,2.3
					c7.5-6.6,13.8-14.4,18.4-23.2c2.9-0.4,6.2-3.8,8.3-5.1c5.6-3.8,11.2-7.7,16.7-11.7c1.7-1.2,0.1-4.1-1.7-2.8
					c-3.6,2.6-7.2,5.2-10.8,7.7c-3.2,2.2-6.5,5.1-10,7c0.2-0.4,0.4-0.9,0.6-1.3c2.3-5.5,3.9-11.3,5-17.2c1.2-7,1.8-14.5,6-20.5
					c0.8-1.2,1.8-2.3,2.7-3.3c5.8,0.7,11.6,0.3,17.2-1.6c2-0.7,1.1-3.8-0.9-3.2c-4.3,1.4-8.7,2-13.2,1.8
					c6.7-5.9,14.9-10.1,19.4-18.4c0-0.1,0.1-0.1,0.1-0.2c3.5-1.9,7.1-3.9,10.6-5.8c1.9-1,0.2-3.9-1.7-2.8c-2.2,1.2-4.4,2.4-6.6,3.6
					c4.3-10.8,6.9-24.1,19-28C339.1,654.9,338.3,651.7,336.2,652.3z"/>
				<path class="st7" d="M254.6,654.3c-6.4,12.4-12.1,25.8-21.6,36.1c-2.9-6.7-5.6-13.4-5.6-20.9c0-8.5,2.6-16.6,4.1-24.9
					c1.9-1.4,2.9-4.6,3.8-6.5c1.8-3.9,3.3-7.9,4.5-12c2.6-9.1,3.6-18.5,3-27.9c-0.1-2.1-3.4-2.1-3.3,0c0.7,13.2-1.6,26.3-7.1,38.3
					c0.7-15.7-5.2-30.5-10.2-45.2c-0.9-2.8-1.8-5.6-2.7-8.6c7.5,2.5,11.6-27.2,12-31.5c0.2-2.1-3.1-2.1-3.3,0
					c-0.6,5.8-1.6,11.5-3.3,17c-0.6,1.9-1.2,3.8-1.9,5.6c-0.6,1.7-1.4,3.4-2.1,5.1c-1.4-0.9-2.4-2-3.1-3.5c0,0,0,0,0,0
					c-2.7-13.4-2.5-27.3,6.2-38.6c1.3-1.7-1.6-3.3-2.8-1.7c-8.2,10.6-9.6,22.1-8,33.8c-4.7-7.2-8.7-15.6-7.1-23.6
					c0.4-2.1-2.8-2.9-3.2-0.9c-1.4,6.9,0.5,13.1,3.8,19.3c2,3.8,4.4,7.3,6.7,10.9c0.4,0.7,0.9,1.5,1.3,2.4
					c4.4,18.8,14.4,38.2,14.6,56c0,2.5-0.2,5-0.5,7.4c-4.1,0.9-9.4-5.4-11.8-8.8c-3.7-5.1-6-11.1-6.7-17.4c-0.2-2.1-3.5-2.1-3.3,0
					c0.8,7.5,3.4,14.4,8.1,20.4c2.2,2.7,8.1,9.7,12.9,10.7c-1.1,6-2.7,12-3.4,18.1c-1.1,8.5,0.2,16.1,3.5,24c0,0,0,0.1,0.1,0.1
					c-3.5-3.7-7-7.4-10.5-11.1c-5.4-5.7-13-12.7-10.9-21.4c0.5-2.1-2.7-2.9-3.2-0.9c-1.8,7.3,1.9,13.5,6.5,18.9
					c6.5,7.6,13.8,14.7,20.7,22c0.3,0.3,0.6,0.4,0.9,0.5c2.4,5.3,4.6,10.7,5,16.6c0.8,9.8-3.7,19.5-5.1,29.1c-0.8,5.5-1,11-0.7,16.4
					c-5.7-9.2-10.4-19-13.8-29.4c-0.7-2-3.8-1.1-3.2,0.9c4.2,12.7,10.1,24.6,17.6,35.6c1.5,11.4,5.2,22.6,10.9,32.7
					c1,1.8,3.9,0.2,2.8-1.7c-5.3-9.4-8.8-19.7-10.3-30.3c0.1-0.1,0.1-0.2,0.1-0.3c3.9-14.8,9.7-28.9,17.2-42.3
					c1-1.8-1.8-3.5-2.8-1.7c-6.4,11.3-11.5,23.2-15.3,35.6c-0.2-4.5,0-8.9,0.5-13.4c1-8.9,4.6-17.4,5.3-26.4
					c0.6-7.5-1.7-14.4-4.7-21.2c-0.3-0.7-0.6-1.3-0.9-2c10.4-10.6,16.3-24.7,23-37.7C258.4,654.1,255.5,652.4,254.6,654.3z"/>
				<g>
					<g>
						<polygon class="st8" points="206.9,779.9 214.2,851.8 283,851.8 290.3,788.8 						"/>
						<rect x="189.4" y="771" class="st9" width="118.6" height="17.8"/>
					</g>
				</g>
			</g>
		</g>
		<g>
			<g>
				<path class="st9" d="M810.1,272.8l-37.9,12.8l-26.5,8.7c0,0-3,9.4,3.5,11.6c6.4,2.2,76.4-15.9,76.4-15.9
					S821.5,273.6,810.1,272.8z"/>
				<path class="st10" d="M772.3,285.6l-26.5,8.7c0,0-3,9.4,3.5,11.6c2.9,1,20.5-2.1,36.3-6.1c-0.5-7.2-2.3-10.3-6.8-15.9
					L772.3,285.6z"/>
				<path class="st9" d="M859.1,345.4c7.1-2.9,17.7-6.8,25.1-8.7c7.1-1.8,8.3,0.3,15.5-1.2c-14.1-33.4-54.7-69.9-54.7-69.9
					c-26.8-1.4-37.5,13.8-37.5,13.8l29.4,69.4C842.4,349.9,854.3,347.4,859.1,345.4z"/>
				<g>
					<g>
						<g>
							<path class="st11" d="M841.9,257.2c0.7-0.5,3.5-19.5,0-25.1c-3.5-5.6-51.9-26.2-51.4,13C791,284.2,821.3,273.2,841.9,257.2z"
								/>
							<path class="st10" d="M790.5,245c0,0,1.8,32.5,20.9,35.5s25.3-13.4,25.3-13.4s8.6,3.5,11.5-3.4c2.9-6.8-6.2-7.9-6.2-7.9
								l-9.4,5.2l-2-2.2l-3.8-15.2C826.8,243.7,799.5,255.8,790.5,245z"/>
							<path class="st12" d="M844,259.9c0.9,0.5,1.5,1.7,1.1,2.7c-0.2,0.6-0.7,1-1.2,1.3c-1.1,0.6-2.5,0.7-3.6,0.3
								C835.5,262.4,841.2,258.3,844,259.9z"/>
						</g>
					</g>
				</g>
				<g>
					<g>
						<path class="st10" d="M750,354.5c2.7-3.7,7.6-5.6,12.1-4.6c4.5,1,8.1,4.8,8.9,9.3c0.4,2,0.1,4.2-1.4,5.6
							c-1.3,1.2-3.1,1.5-4.9,1.7c-5,0.6-9.2,0.7-13.6-1.9C746.6,361.9,746.9,358.9,750,354.5z"/>
						<path class="st10" d="M764.5,367.4l-3.7,7.3c0,0-13.4,80.5-13.4,79c0-1.5,13.4-91.3,13.4-91.3l-12.9-0.5
							c0,0-44.2,120.4-27.8,127.9c16.4,7.5,58.7-43.3,58.7-43.3L764.5,367.4z"/>
						<path class="st13" d="M764.5,367.4l-3.7,7.3c0,0-11.6,59.8-15.3,69.3c0.6,2.8,3.6,13.4,4.1,20.6c0.5,8.1-2,7-4.1,14.9
							c12.2-4.9,33.3-33,33.3-33L764.5,367.4z"/>
					</g>
					<g>
						<g>
							<path class="st8" d="M789.5,536.6c0,0-10.3,117.4-6.1,168.2s10.3,130,10.3,130s-29.7,5.5-30.1,10.6l55.7,2l-6.9-17.9
								c0,0,9.7-77.1,9.4-83.7c-0.3-6.6-8.2-21.8-8.2-21.8l21.4-144.6c0.3-1.8,1.6-3.3,3.3-3.9l0,0c2.9-0.9,5.9,1.2,6.1,4.2l4.2,145
								l29.4,106.9c0,0-18.9,11.4-21.3,17.5l43.6,1.5l-7-19.5l2.4-91.5l-4.8-9.6l2.4-193c0,0-84.8-9.5-98.5-1.1L789.5,536.6z"/>
							<path class="st14" d="M893.5,828.1l-0.1,3.3l7,19.5l-43.6-1.5c2.4-6.1,21.3-17.5,21.3-17.5l-0.3-1.1
								C883.1,831.1,888.6,830.2,893.5,828.1z"/>
							<path class="st14" d="M798.1,835.9c2.7,0.5,5.4,0.8,8.1,0.2c2.8-0.6,5.2-2.2,7.1-4.3"/>
						</g>
						<g>
							<path class="st3" d="M912.3,358.7c-15.4-11.7-101.5-7.9-101.5-7.9l-51,17.6l26.8,177c0.4,2.3,2.4,4.1,4.7,4l93.7-1.6
								c3.9-0.6,7-3.7,7.5-7.7C896.1,509.2,925.8,368.9,912.3,358.7z"/>
							<path class="st11" d="M892,342.1c-0.3-2.3-0.6-4.6-0.4-6.4c-8.7-1.8-14.5-0.8-23.3-2.1c-7.6-1.1-15-1.6-22.7-2
								c-3.5-0.2-7.2-0.5-10.7-1.5l0,0.2l-29.9,0.2l-33.9,32.1c0,0-24-17.3-23.4-7.7c0.6,9.6,26.7,30.1,26.7,30.1l36.6-32.5
								c0,0,48.8,4,59.7,6.1c5,1,9.9-0.5,13.7-2.3C889.8,353.5,892.8,347.8,892,342.1z"/>
							<path class="st15" d="M760.8,362.4c0.8-1.9,1.2-3.9,1.1-5.9c-6.7-3.8-14.4-7.2-14.1-1.7c0.2,3.6,3.9,8.6,8.5,13.5
								C758.2,366.7,759.8,364.7,760.8,362.4z"/>
							<path class="st16" d="M771.7,373.6c-7-7.3-15-13.6-23.8-18.5c1,9.7,26.6,29.8,26.6,29.8l2.6-2.3c-0.9-1.5-1.9-2.9-2.6-4.9
								C774,376.1,772.8,374.8,771.7,373.6z"/>
							<g>
								<path class="st9" d="M841.9,268l-3.3,52.1l-2.9,27.7c0,0,9.6,4.9,14.2-0.1c3.5-3.8,10.1-45.8,13.1-66.1
									c1.2-8.2-4.3-16-12.4-17.3C847.1,263.8,843.7,264.5,841.9,268z"/>
								<path class="st12" d="M838.6,320.1l-2.9,27.7c0,0,9.6,4.9,14.2-0.1c2.1-2.2,5.2-17.3,8-33.4c-6.7-2.5-11.3-2.7-18.3-0.9
									L838.6,320.1z"/>
							</g>
							<path class="st12" d="M813.7,338.6c-0.1-2.8-0.3-5.6-1.4-8.1c0-0.1-0.1-0.1-0.1-0.2l-7.1,0l-28.5,26.9c0.8,0.4,1.5,1,2.1,1.6
								c4.3,3.7,8,8.5,9.4,13.9l23-20.4c0,0,0.5,0,1.5,0.1C813.5,347.9,813.8,343.3,813.7,338.6z"/>
							<g>
								<g>
									<g>
										<path class="st12" d="M833.3,320.5l1.6,25.9c0,0-14.7,26.4-15.4,25.6c-1.5-1.8-5.4-9.7-6.3-15.6l-6.4-26.8L833.3,320.5z"
											/>
										<path class="st17" d="M819.3,375.2c-2.5-2.6-2-3.7-4.5-6.3c-0.2-0.2-0.5-0.5-0.8-0.6c-0.5-0.2-1.1,0-1.7,0.3
											c-2.3,1.2-4.5,2.8-6.2,4.7c2.1-5.9,3.7-11.8,5-17.9c3.8,6.2,6.2,12,9,18.7"/>
										<polygon class="st13" points="810.6,345.4 816.4,361 820.1,374.1 812,361.8 802.3,367.6 807.7,350.5 										"/>
										<path class="st18" d="M833.3,320.5l1.1,18.3c-0.4,0.8-0.9,1.6-1.4,2.4c-2.6,4.1-5.9,8.1-10.5,9.6c-3.7,1.1-7.6,0.4-11-1.3
											l-4.7-19.9L833.3,320.5z"/>
										<g>
											<path class="st10" d="M789.7,309.8c0.3-0.9,0.6-1.7,1-2.5c11.5,9.8,28.7-9.2,38.1-4.3c3,1.8,4.9,3.3,4.9,3.3
												c6.4-0.5,9.4,3,9.6,10c0.1,6.9-9.1,7.7-9.1,7.7c2.4,13.4-6.7,22.8-22,24.7C796.8,350.5,789.7,309.8,789.7,309.8z"/>
										</g>
									</g>
									<path class="st11" d="M833.2,314.8c0,0.2,0,0.4-0.2,0.5c-0.1,0-0.2,0-0.3,0c-1.4-0.3-2.8-0.2-4.1,0.1
										c0.1-2.8-0.2-5.5-0.8-8.2c-12.5,2.3-25.3,2.4-37.9,4.1c-1-10.2-1.8-18.2-2.6-28.3c0.4-0.5,2.2-0.7,2.8-0.4s0.9,0.9,0.8,1.5
										c-0.2-1.3,0.5-2.6,1.8-3.1s2.9,0.2,3.1,1.6c0.6-0.9,2-2.3,3-2.8s2.4,0,2.5,1.1c0.6-2.1,3.3-3.2,5.2-2.2
										c0.1,0.1,0.3,0.2,0.3,0.3c0,0.1-0.2,0.3-0.3,0.2c0.9-0.8,2.4-2.2,3.6-2.4c1.2-0.2,2.5,0.4,2.8,1.5c0.8-0.9,1.8-1.8,3-1.9
										c1.2-0.1,2.6,1,2.2,2.2c0.6-0.8,2.4-1.5,3.4-1.3c1,0.2,1.8,1,2,2c0.4-1.1,1.7-1.8,2.9-1.7s2.2,1.1,2.4,2.3
										c0.6-1,2.4-1.7,3.5-1.6c1.1,0.2,2.1,1.3,1.8,2.4c0.6-0.9,1.8-1.3,2.7-0.9c1,0.3,1.7,1.4,1.6,2.4c1.2-0.8,2.9-0.5,3.7,0.6
										c0.9,1.1,0.8,2.8-0.2,3.8c1.2,0.7,1.8,2.8,1,3.9c0.7-0.2,1.4,0.6,1.5,1.4c0,0.8-0.4,1.5-0.8,2.1c-0.5,0.8-1,1.6-1.4,2.4
										c-2.3,3.9-3,6-4.8,10C836.1,306.2,833,311.2,833.2,314.8z"/>
									<path class="st12" d="M838.1,312.1c0.3,0.1,0.6,0.3,0.9,0.6c0.5,0.6,0.7,1.5,0.6,2.4c-0.1,0.8-0.5,1.6-0.9,2.3
										c-0.2,0.4-0.5,0.8-0.9,1.2c-0.5,0.4-1,0.7-1.6,0.9c-0.1,0.1-0.2,0.1-0.4,0.1c-0.2,0-0.3-0.1-0.5-0.2
										C833.1,317.7,834.9,311.5,838.1,312.1z"/>
									<path class="st11" d="M828.6,316.5c1.3-0.5,3-0.1,4.3,0.2c0.4,0.1,0.3,0.8-0.1,0.8c-1.3,0-2.8,0.4-4.1,0.1
										C828.2,317.5,828.1,316.7,828.6,316.5z"/>
									<path class="st11" d="M829,318.4c1.2-0.3,2.4,0.1,3.6,0.2c0.5,0,0.5,0.8,0,0.8c-1.2-0.1-2.3,0.4-3.5,0.3
										C828.4,319.6,828.3,318.6,829,318.4z"/>
									<path class="st11" d="M828.8,320.1c0.9-0.4,2-0.3,3-0.1c0.7,0.1,0.7,1.1,0,1.1c-0.9,0-1.8,0.3-2.8,0.3
										c-0.3,0-0.6-0.3-0.7-0.6C828.2,320.5,828.5,320.2,828.8,320.1z"/>
								</g>
							</g>
							<path class="st13" d="M820.2,361.9c-0.7,7-1.4,11.3-1.8,16.9c-0.5,5.9-0.9,11.8-1.3,17.7c-0.8,11.6-1.5,23.2-2,34.7
								c-1,23.7-0.9,47.4,1.1,71c0.6,6.5,1.3,12.9,2.1,19.3c0.9,6.5,2.6,22,4.4,28.3c0.3,1.2,2.2,0.8,2-0.4
								c-0.6-5.9-3-20.5-3.8-26.3c-0.8-5.7-1.5-11.3-2-17c-1.1-11.6-1.7-23.2-2-34.8c-0.5-23.4,0.4-46.7,1.8-70
								c0.4-6.7,0.8-13.4,1.2-20.1c0.4-6.4,1.1-12.9,0.7-19.2C820.6,361.7,820.2,361.7,820.2,361.9z"/>
							<path class="st8" d="M828.9,362.2c-0.3,0.5-10.4,13.9-10.4,13.9l1.6-14.2l6-2.4L828.9,362.2z"/>
							<polygon class="st13" points="834.9,342.4 820.2,361.9 836,372.5 840.5,349.8 							"/>
						</g>
					</g>
					<path class="st11" d="M899.1,333.8c-1.2-2-2.3-4-2.9-5.7c-8.7,1.8-13.6,5-22.3,7.3c-7.4,2-14.4,4.5-21.6,7.1
						c-3.3,1.2-6.8,2.4-10.4,2.8l0.1,0.2l-27.4,12l-21.5,41.4c0,0-25.9-4.9-21.5,3.6c4.3,8.6,36.4,17.1,36.4,17.1l20.8-44.4
						c0,0,46.4-15.6,57.3-18c5-1.1,8.9-4.4,11.7-7.6C901.6,345.2,902,338.8,899.1,333.8z"/>
					<path class="st1" d="M811.3,384.3c-1.8-1.3-3.8-2.3-6-2.7c-1-0.2-2-0.2-3,0l12.5-24.2l-21.5,41.4c2.1,0.7,3.9,2.3,4.7,4.4
						c0.4,1,0.6,2.1,1,3c1.3,3,4.7,4.5,7.9,5.1c1.6,0.3,3.2,0.4,4.8,0.6l17.2-36.8l-9.8,20.9C818,391.4,815.2,387.1,811.3,384.3z"/>
					<path class="st15" d="M787.6,402.9c-0.4-1.9-1.4-3.7-2.7-5.2c-7.1-0.7-15.9-0.5-13.2,4.8c1.7,3.4,7.9,6.9,14.7,9.7
						C787.7,409.3,788.3,406,787.6,402.9z"/>
					<path class="st10" d="M832.9,360.9c-1.1-2.6-2.6-5.1-4.6-7.1c-1.5-0.1-3-0.3-4.4-0.4l-9.2,4l-12.5,24.2c1-0.2,2-0.2,3,0
						c2.2,0.4,4.2,1.4,6,2.7c3.9,2.8,6.7,7.1,7.8,11.8l9.8-20.9c0,0,2.5-0.9,6.5-2.2c0-0.4-0.1-0.8-0.1-1.2
						C834.9,368.1,834.2,364.4,832.9,360.9z"/>
					<g>
						<path class="st13" d="M912.7,359.6c0,0,56,128.1,6.4,119.6L897.3,427C897.3,427,904.4,381.1,912.7,359.6z"/>
						<path class="st10" d="M930.5,478.1c0,0-6-45.5-70.3-120.7l-10,3.7c0,0,42.4,126.6,56.7,132.4S929.7,489.8,930.5,478.1z"/>
					</g>
				</g>
				<path class="st19" d="M821,350.7c1.8-0.4,3.8,0.4,5.3,1.5c3,2.2,5.2,5.4,6.6,8.8c1.4,3.5,2,7.2,2.4,10.8
					c0.2,1.9,0.4,3.9-0.2,5.7c-0.1,0.2-0.2,0.4-0.4,0.5c-0.2,0.1-0.5-0.1-0.4-0.3"/>
				<path class="st19" d="M798.8,382.9c1.8-1.3,4.2-1.6,6.4-1.3c2.2,0.4,4.2,1.4,6,2.7c4.6,3.3,7.6,8.6,8.2,14.3"/>
				<path class="st1" d="M795.2,366.5c-1.4-5.4-13-13.3-13.7-13.7l-10.3,9.7c0,0-0.4-0.3-1.1-0.8c0.9,1.4,2.1,2.7,3.2,4.1
					c3.3,4,5.8,8.7,7.4,13.6l30.4-27l0,0L795.2,366.5z"/>
				<path class="st10" d="M850.1,361.1c-1.6,0.6-2.9-1.2-3.8-2.8c-0.9-1.5-1.1-3.3-1.9-4.9c-0.6-1.4-1.5-2.6-2.7-3.5
					c-1.4-1.1-3.4-1.8-4.8-0.8c-0.7-0.2-1.3-1.1-1-1.8c0.4-0.7,1.1-1,1.9-1.2c0.7-0.2,1.5-0.3,2.2-0.6c0.1-1.1,1.3-2,2.3-2.4
					s2.1-0.2,3.2-0.1c1.4-1.8,4-2.5,6.1-1.7c1.7-0.4,3.3-0.4,4.3,0.9c1.1,1.3,1.6,3,2,4.7c0.9,4.3,1.1,8.9,2.8,12.9
					c0.3,0.7,0.7,1.5,0.4,2.2c-0.2,0.5-0.7,0.9-1.1,1.3c-1.1,0.9-2.3,1.7-3.7,2.1c-1.4,0.4-3,0.2-3.9-0.8
					C851.4,363.6,851.5,362.1,850.1,361.1z"/>
				<path class="st10" d="M757.9,352.1c-0.1-2.1-3.5-2.1-3.3,0c0.2,2.5-0.2,4.8-1,7.1c-0.7,2,2.5,2.9,3.2,0.9
					C757.7,357.5,758.1,354.8,757.9,352.1z"/>
				<path class="st10" d="M760.1,353.5c0.1,2.3-0.3,4.5-1.1,6.7c-0.7,2,2.5,2.9,3.2,0.9c0.8-2.5,1.2-5,1.2-7.6
					C763.4,351.4,760.1,351.4,760.1,353.5z"/>
				<path class="st10" d="M770.7,357.3c-0.6-1-1.8-0.9-2.6-0.3c-0.1-0.5-0.2-0.9-0.4-1.4c-0.6-2-3.8-1.2-3.2,0.9
					c0.8,2.4,0.9,4.8,0.3,7.3c-0.5,2.1,2.7,3,3.2,0.9c0.3-1.4,0.5-2.8,0.5-4.2c0.7,1.9,0.9,3.8,0.3,5.8c-0.6,2.1,2.6,2.9,3.2,0.9
					C773,363.7,772.5,360.3,770.7,357.3z"/>
				<path class="st10" d="M728.8,293.3c2,0.2,3.8,0.9,5.6,2c-0.2,0.3-0.5,0.7-0.6,1c-2.9-0.5-6-0.2-8.8,0.9
					c-1.7,0.7-0.5,3.3,1.2,2.6c2.3-0.9,4.6-1.1,6.9-0.7c-0.1,0.5-0.1,1-0.1,1.6c-3.1,0.5-5.9,1.8-8.3,3.9c-1.4,1.2,0.4,3.4,1.8,2.2
					c2-1.7,4.3-2.9,6.9-3.3c0.1,0.3,0.1,0.5,0.2,0.7c-0.2,0.1-0.3,0.2-0.5,0.3c-1.8,1-3.5,2.3-5,3.8c-0.3,0.3-0.4,0.6-0.4,1
					c-0.2,1.2,1.2,2.5,2.2,1.5c1.6-1.6,3.3-2.9,5.1-4c0.1-0.1,0.3-0.2,0.4-0.2c3,0.6,10.4-1.6,10.4-1.6s0,0-4.3,3.9
					c-4.3,3.9-0.9,4.3-0.9,4.3c4.2-0.5,10.8-7.4,10.8-7.4l2.8-9.5c0,0-12-5.5-17.2-3c-2.3-1.5-4.8-2.7-7.6-2.9
					C727.2,290.3,726.9,293.1,728.8,293.3z"/>
			</g>
			<g>
				<g>
					<path class="st8" d="M1020.9,369.8c0,0-103.5,107.6-103.8,114.1c-0.3,6.5,115.9,68.8,115.9,68.8l2.9-13.8
						c0,0-55.4-51.3-66.5-59.1c0,0,66.7-40.9,69-49C1040.6,422.7,1038.3,377.8,1020.9,369.8z"/>
					<g>
						<path class="st20" d="M1035.9,539.8l-2.9,13.8c0,0-19.6-10.5-42.6-23.3c2.5-7.5,7.2-19.8,8.8-24.7
							C1018.1,520.6,1035.9,539.8,1035.9,539.8z"/>
					</g>
				</g>
				<g>
					<path class="st3" d="M1015.2,523c0,0-20.4,102.2,10.3,275.7v35.2c0,0-18.6,2.1-23.3,15h47.9l0.9-51.7c0,0,4.7-44.7-3.2-57.4
						l1.2-51.8l8.1-93h8.2c0,0,21.7,129.5,29.5,153.1l12.1,87.4c0,0-11.4,6.1-12.1,15.6c0,0,40.6,0.9,32.1-3.3
						c0,0,4.1-107.7,2.2-112.9c-1.9-5.2-8-14.2-8-14.2l-9.9-206.8c0,0-73,2.4-91.8,9.2"/>
					<path class="st20" d="M1027.6,721.8c-4.5-0.1-9-0.9-13.3-2c2.6,24.3,6.2,50.7,11.3,78.9v35.2c0,0-18.6,2.1-23.3,15h47.9
						l0.9-51.7c0,0,4.7-44.7-3.2-57.4l0.5-22.3C1042,720.7,1034.7,722,1027.6,721.8z"/>
					<path class="st9" d="M1029.9,836.9c-2-0.6-4-1.5-5.5-2.8c-4.1,0.7-18.2,3.9-22.2,14.8h47.9l0.2-13.9
						C1044.1,838.1,1036.6,838.8,1029.9,836.9z"/>
					<path class="st20" d="M1129,734.8c-1.9-5.2-8-14.2-8-14.2l-0.4-8.2c-9.7,3.6-19.7,6.2-30,5.5c-1-0.1-2.1-0.2-3.1-0.3
						c2.8,13.9,5.4,25,7.2,30.4l12.1,87.4c0,0-11.4,6.1-12.1,15.6c0,0,31,2.5,33.1-1.9C1127.8,849.1,1130.9,740,1129,734.8z"/>
					<path class="st9" d="M1111.7,836.9c-1.5-0.2-3.1-0.5-4.5-1.2c-0.2-0.1-0.3-0.2-0.5-0.3c-0.4,0.2-11.4,6.3-12.1,15.6
						c0,0,31,2.5,33.1-1.9c0,0,0.2-5.6,0.4-14.4c-0.2,0.1-0.4,0.2-0.6,0.3C1122.7,837.1,1117.1,837.5,1111.7,836.9z"/>
					<g>
						<g>
							<path class="st8" d="M1020.9,369.8l90.1-8.3c0,0,6.4,79.1,8,126.3c0.7,20-7.4,48.3-6.6,55.8h-101c0,0-19.7-97.2-9.2-147
								C1004.8,384.4,1016.9,372.8,1020.9,369.8z"/>
							<path class="st8" d="M1111.2,361.5c0,0,53.8,122.8,29.8,137.6c-24,14.7-50-99.7-50-99.7L1111.2,361.5z"/>
							<g>
								<path class="st13" d="M1044.9,362c0,0-16.5-2.4-12.9,7.2c3.6,9.6,12.8,23.4,12.8,23.4L1044.9,362z"/>
								<path class="st20" d="M1026.9,324.9c0,0-7.2,42.3,18,37.1l-0.1,30.6c0,0,21.5-22.5,25.7-31.1v-15.7c0,0,10.9,2.9,11.4-7.1
									c0.5-10-4.8-16.2-10-11.4L1026.9,324.9z"/>
								<path class="st9" d="M1017.9,321.3c4.5,5.6,12.2,7.3,19.4,7.8c9.9,0.7,19.9,0,29.6-2.3c-1.2,4.2-2.4,7.9-4.4,11.8
									c2.7,1.7,5.1,3,7.4,5.2c-1-5,1.8-9.9,2.8-14.9c0.2-1.3,2-2.1,3.3-1.9c1.3,0.2,2.4,1.2,2.7,2.5c2-1.9,3.8-4.5,3.9-7.2
									s-0.7-5.5-2-7.9c-0.8-1.4-1.7-2.8-3-3.6c-1.3-0.9-3.1-1.3-4.6-0.7c-3.3-6.9-10.8-12-18.4-12.1c-7.6-0.1-14.5,3.8-21.4,6.9
									c-6.9,3.1-15.1,5.3-21.8,1.8c0.3,3.7,2.9,7.9,6.4,8.9c-4.3-0.3-9.1,3.4-9.7,7.7c0,0.3,0.4,0.8,0.5,0.4
									C1011.6,321.4,1014.2,321.1,1017.9,321.3z"/>
								<path class="st9" d="M1015.5,317.3"/>
								<path class="st21" d="M1073.4,334.5c0.6-1,1.4-2,2.5-2.2c0.3-0.1,0.6-0.1,0.8,0c0.4,0.2,0.5,0.6,0.6,1
									c0.5,1.7,1,3.5,0.5,5.2c-0.5,1.5-3.4,4.3-5.1,2.9C1071.2,340.2,1072.7,335.8,1073.4,334.5z"/>
							</g>
							<path class="st9" d="M1011.5,379.7"/>
							<path class="st19" d="M969.4,479.8c-0.2-0.8-0.4-1.7-0.6-2.5"/>
						</g>
					</g>
					<path class="st19" d="M1126.5,550.2c0,0.1,0,0.2,0,0.3"/>
				</g>
				<path class="st8" d="M1078.1,374.9"/>
				<path class="st13" d="M1044.8,392.6c0,0,22.3-40.1,33.2-40.2c11-0.1,12.8,10.9,12.8,10.9L1044.8,392.6z"/>
				<path class="st9" d="M1084.5,353.2c0,0,61.9,136.1,56.3,145.8c-5.5,9.7-28.7,28.8-41.7-2s-24.1-137-24.1-137L1084.5,353.2z"/>
				<path class="st8" d="M1061.4,370.2l-7.7-7c-1.9-1.7-2-4.6-0.3-6.5l22.7-25.5c1.7-1.9,4.7-2.1,6.6-0.3l7.7,7
					c1.9,1.7,2,4.6,0.3,6.5l-22.7,25.5C1066.3,371.7,1063.3,371.9,1061.4,370.2z"/>
				<path class="st20" d="M1099.5,386.8c-8.5-19.5-14.9-33.6-14.9-33.6l-9.5,6.8c0,0,1.4,13.6,3.8,32.5
					C1086.1,392.6,1093.3,390.6,1099.5,386.8z"/>
				<path class="st20" d="M1077.1,363.9c-3.3-2.7-2.8-8.8-6.6-10.7c-1-0.5-2.2-0.6-3.3-1c-2.7-1.1-4-4.3-3.6-7.2
					c0.4-2.8,2.2-5.3,4.4-7.2c1.8-1.6,3.9-3,6.3-3.1c2.4-0.1,5,1.4,5.4,3.8c0.2,1.4,4.6,12.3,5.6,15.1c0.4,1.3,0.9,2.6,0.4,3.9
					c-0.3,0.7-0.8,1.2-1.3,1.7c-2.6,2.3-7.3,4.8-9.2,2.7"/>
				<path class="st0" d="M1051.3,387c-1,0-1.8,0.8-1.8,1.8v78.5c0,1,0.8,1.8,1.8,1.8c1,0,1.8-0.8,1.8-1.8v-78.5
					C1053.2,387.8,1052.4,387,1051.3,387z"/>
				<path class="st0" d="M1042,385.3c-1,0-1.8,0.8-1.8,1.8v78.5c0,1,0.8,1.8,1.8,1.8c1,0,1.8-0.8,1.8-1.8v-78.5
					C1043.8,386.2,1043,385.3,1042,385.3z"/>
			</g>
			<path class="st22" d="M444.3,367c-2.7-6.3-8.2-10.8-13.9-14.5c-15.2-9.9-32.9-15.4-50.8-18.3c-6.8-1.1-14.1-1.7-20.2,1.5
				c-5.5,2.9-9,8.5-11.5,14.1c-4.8,10.5-7.2,22.7-3.2,33.5c3.1,8.2,9.8,14.8,17.5,19c7.8,4.1,16.6,6,25.3,6.7
				c10,0.8,33.9,4.1,43.2,0.3c9.5-4,8.1-5.6,15-12.4C451.7,391,448.2,376,444.3,367z"/>
			<g>
				<path class="st23" d="M497.8,341.3c0,0,9.7,14.1,6.9,15.1c-2.8,1-6.4,0.9-6.4,0.9L497.8,341.3z"/>
				<path class="st23" d="M460.4,325.9h34.5c0,0,22.2,61.1-25,48.6l-5,14c0,0-15.8-0.1-20.6-9.8l6.2-16.8c0,0-15.1,0.5-15.7-10.7
					c-0.5-11.2,5.3-18.2,11.2-12.8l11.7-7L460.4,325.9z"/>
				<path class="st24" d="M454.5,350.8c-1.7,2-3.1,4.2-4.3,6.6c-0.9-7.7-3.9-15.1-6.8-22.3c2-0.9,4.2-1.5,6.4-1.6
					c2.8-0.1,2.1,1.5,2.3,3.9c0.2,2.3,0.5,4.6,0.9,6.9C453.1,345.1,454.9,350.3,454.5,350.8z"/>
				<path class="st21" d="M444.5,346.3c-0.6-1.1-1.6-2.2-2.8-2.5c-0.3-0.1-0.6-0.1-0.9,0c-0.4,0.2-0.6,0.7-0.7,1.1
					c-0.6,1.9-1.2,4-0.6,5.9c0.5,1.6,3.8,4.8,5.7,3.3C447,352.7,445.4,347.8,444.5,346.3z"/>
				<path class="st24" d="M451.1,340.9c1,1.8,3-2.8,4.6-4.2c0.2-0.2,0.5-0.4,0.6-0.7c0.1-0.3,0-0.6,0-0.9c-0.2-0.8-0.4-1.7-0.5-2.5
					c0,0,10.8,3.9,17.1,3.9c0,0,33,1.9,40.6-20.2c0,0-11.7-4-17.6-11.9c-5.9-7.9-39.7-5.6-44.7,5.8c0,0-18.6,2.6-16.2,12.8
					c2.4,10.2,4.4,14.3,4.4,14.3S449.3,337.7,451.1,340.9z"/>
			</g>
			<path class="st23" d="M489,405"/>
			<g>
				<path class="st11" d="M664.3,339.7c-1.2-7.9-6.6-14.8-13.2-19.3c-8.9-6-20.2-8.3-30.8-6.1c-10.5,2.2-20.1,8.7-25.9,17.8
					c-11.8,18.4-7.1,43.2-16.1,63.1c-13.4,29.7-52.5,40-68.4,68.5c-4.6,8.3-7,17.9-6.2,27.4c0.6,7.7,3.2,15.2,6.7,22.1
					c9.5,18.6,26.9,33.5,47.3,37.7c20.4,4.2,43.5-3.8,55.1-21.1c11.4-16.9,10.7-38.9,10.4-59.4c-0.3-17,0-33.9,0.7-50.9
					c0.6-12.1,1.4-24.5,5.7-35.8c3.4-9,10.3-20.2,19.8-23.9c4.1-1.6,7-0.7,10.4-4.1C663.8,351.9,665.1,344.8,664.3,339.7z"/>
				<path class="st23" d="M673.6,550.9l12-169.4c0,0-31.1,18.2-49.9,15.5l-52.3,16.1l18,141c0,0-41,31.8-37,71.4
					c4,39.5-3,97.8-6.8,110.2c-3.9,12.4-20.2,39.8-16.6,92.3l-5.7,18.9h60.5c0,0-1-12.8-24.4-16.1c-4.8-0.7-8-1.1-10.2-1.3
					c3.6-11.1,30-91,38.5-107.5c7.8-15.1,32.1-80.9,39.1-100.3c1.1-3,4.3-4.6,7.4-3.7c2.6,0.8,4.4,3.2,4.3,6
					c-0.7,18.4-2.9,85.9,0.2,103.6c0,0-24.2,27.3-16.7,103.2l-3.1,14.1h58.4c0,0-8.8-16.2-24.4-17.9h-11.1c0,0,41-114.3,44.1-142.6
					C701.1,655.9,704.9,586.1,673.6,550.9z"/>
				<path class="st25" d="M719.6,264.2c-0.5,3.1-2,5.7-3.8,8.2c-0.5-0.4-1-0.8-1.5-1.1c1.2-4.4,1.2-9.1-0.1-13.7
					c-0.8-2.7-5-1.3-4.2,1.4c1,3.6,1,7.2,0.1,10.6c-0.8-0.2-1.6-0.3-2.4-0.3c-0.3-4.8-1.9-9.4-4.8-13.4c-1.6-2.3-5.3,0.1-3.7,2.4
					c2.4,3.3,3.7,7.1,4,11c-0.4,0-0.8,0.1-1.1,0.2c-0.1-0.3-0.3-0.6-0.4-0.8c-1.3-3-3-5.7-5.1-8.3c-0.4-0.5-0.9-0.7-1.4-0.8
					c-1.8-0.6-4.1,1.4-2.6,3.2c2.2,2.6,4,5.4,5.4,8.4c0.1,0.2,0.2,0.5,0.3,0.7c-1.4,4.6,0.8,16.2,0.8,16.2s0,0-5.4-7.1
					c-5.4-7.1-6.4-2.1-6.4-2.1c0.2,6.5,15,22.9,15,22.9l8.8,0.3c0,0,10.1-17.6,7.1-25.9c2.6-3.3,4.8-6.9,5.6-11.2
					C724.5,262.2,720.1,261.4,719.6,264.2z"/>
				<path class="st23" d="M678,449.8c0,0,37.9-56.9,42.8-71c4.9-14.1-6-85.5-6-85.5l-14.8,4.1v67.8l-46,33.3
					C653.9,398.5,669.6,440,678,449.8z"/>
				<path class="st8" d="M680.5,560c-13.7,6.7-28.2,11.7-43.3,13.3c-16.2,1.8-33.2-0.6-47.6-8c-11.8,12.7-27.6,34.8-25.1,60.1
					c4,39.5-3,97.8-6.8,110.2c-3.9,12.4-20.2,39.8-16.6,92.3l-5.7,18.9h60.5c0,0-1-12.8-24.4-16.1c-4.8-0.7-8-1.1-10.2-1.3
					c3.6-11.1,30-91,38.5-107.5c7.8-15.1,32.1-80.9,39.1-100.3c1.1-3,4.3-4.6,7.4-3.7c2.6,0.8,4.4,3.2,4.3,6
					c-0.7,18.4-2.9,85.9,0.2,103.6c0,0-24.2,27.3-16.7,103.2l-3.1,14.1h58.4c0,0-8.8-16.2-24.4-17.9h-11.1c0,0,41-114.3,44.1-142.6
					C700.8,658.2,704.3,597,680.5,560z"/>
				<path class="st14" d="M540.4,829.8l-5.1,17h60.5c0,0-1-12.8-24.4-16.1c-2.4-0.3-4.4-0.6-6.1-0.8c-2,0.6-3.9,1.2-6,1.6
					C553.1,832.6,546.4,832.1,540.4,829.8z"/>
				<path class="st14" d="M634,831l-3.1,13.7h58.4c0,0-8.8-16.2-24.4-17.9h-9.3c-4,1.5-8.1,2.8-12.2,3.6
					C640.3,831,637.1,831.2,634,831z"/>
				<path class="st26" d="M638.2,397.1l-9.2,15.4c0,0,18.5,9,21.4,5.8S638.2,397.1,638.2,397.1z"/>
				<path class="st25" d="M613.7,377.5l3.9,25.3c0,0,15.3,13.1,19,9.7c3.6-3.4,0-32.8,0-32.8L613.7,377.5z"/>
				<g>
					<path class="st25" d="M657.5,345.7c0,0,1.1-2.3,0.5-4.9l-16.5,6.1c-1.4,2.1-2.6,4.4-3.9,6.5c-2.9,4.6-6.8,8.8-11.7,11.4
						c-4.9,2.5-10.8,3.3-15.9,1.3c0.8-0.6,1.9-1.8,2.7-2.8c-0.7-0.3-2.1-0.8-5-2c-5.6-2.2-7.1,9.3-5.6,13.2c1.5,3.9,9.2,5.3,9.2,5.3
						c3.3,8,17.2,11.9,36.8,7.5C667.6,382.8,657.5,345.7,657.5,345.7z"/>
				</g>
				<path class="st27" d="M605.4,367.7c-0.6,0.3-0.9,0.9-1,1.6c-0.1,0.6,0.1,1.3,0.4,1.9c0.3,0.7,0.7,1.3,1.1,1.9
					c0.4,0.4,0.8,0.9,1.3,1.1c0.5,0.2,1.2,0.2,1.6-0.2c0.3-0.3,0.4-0.7,0.5-1.1C609.6,370.7,608.8,366,605.4,367.7z"/>
				<path class="st26" d="M615.2,397.1l21.4,15.4c0,0-17.7,16.7-24.4,13.5S615.2,397.1,615.2,397.1z"/>
				<path class="st25" d="M627.3,479.9c3.6-1.5,7.6-6.3,10.4-9c2.2-2,4-4.3,6.2-6.3c2.2-2,4.7-3.8,7.5-4.4
					c5.9-1.3,8.4-7.7,13.9-10.2c0.4-0.2,0.9-0.3,1.3-0.3c0.4,0.1,0.7,0.3,1,0.6c2.1,2,2,5.6,0.5,8.1s-4,4.2-6.4,5.8
					c-1.6,1.1-3.2,2.1-4.7,3.2c1.2,1.2,2.1,4.2,1.9,5.9c-0.1,1.7-1.1,3.3-2.5,4.2c1.5,1.7,1.4,5.4-0.1,7.1c-1.4,1.8-3.7,2.6-6,3
					c-2.2,0.4-4.5,0.3-6.8,0.5c-3.7,0.4-7.8,3.7-10.8,5.8c-0.8,0.5-1-0.9-1.9-0.8c-2,0.1-3.2-2.2-3.6-4.2
					C626.3,485.1,626.3,483.7,627.3,479.9z"/>
				<path class="st28" d="M583.5,413.1c0,0-23.5,9.7-25.9,20.3c-2.3,10.6-7.6,52.6-11.3,61.3s-13.9,30.8-6,36.6s57.8-7.6,92.3-37.3
					l-3.7-16.1l-58.1,22.3l10.2-24.8l11.6-24L583.5,413.1z"/>
			</g>
			<g>
				<path class="st9" d="M348.2,359.3c0,0-51.7,101.3-56.9,153.3c-1.3,12.9,6.1,25,18.1,30l1.5,0.6c6.7,2.8,14.2,2.9,21.1,0.5
					l3.7-1.3l77.6-159.2L348.2,359.3z"/>
				<g>
					<path class="st23" d="M516.5,517.4c-1.1-1.6-2.9-2.5-4.8-3.2c-3.9-1.4-8.3-1.9-11.9-4c-1.3-0.8-2.6-1.7-4-2l-60.3-38.7
						c0,0,59.9-36.9,38.2-80.9l-13,0.9c-3,0.2-5.7,1.8-7.5,4.2c-12.5,18.1-63.8,92.7-58.2,95.7c6.2,3.3,75.8,27.9,96.7,30.2
						c1.6,3.1,3.8,6.1,5,8.9c0.5,1.3,1,2.5,1.8,3.6c0.9,1,2.2,1.8,3.5,1.6c1.6-0.3,2.7-1.9,4.3-2.5c1.4-0.5,3-0.1,4.3-0.7
						c2.4-1,2.7-4.2,4.5-6c0.6-0.6,1.3-1.1,1.7-1.7C518,521.3,517.7,519,516.5,517.4z"/>
					<path class="st8" d="M451.9,456.9c15.9-14.5,35.8-39.9,21.9-68.3l-13,0.9c-3,0.2-5.7,1.8-7.5,4.2c-5.9,8.5-20.3,29.4-33.3,49.6
						C425.6,448,437,455.6,451.9,456.9z"/>
				</g>
				<path class="st8" d="M400.1,369.8c-14.1,24.4-62.7,110.4-75.3,156.1c0,0,63.1,31,99.1,20.2c0,0,45.7-101.9,66.4-133.9
					c3.5-5.4,1.6-12.7-4-15.8c-17.4-9.6-50.6-26.8-74.1-31.9C407.4,363.5,402.5,365.6,400.1,369.8z"/>
				<path class="st7" d="M412.1,364.5c0,0,0.3,66.6-73.4,97.7v21.9c0,0,106-29.4,95.9-112.4C434.7,371.7,433.4,355.5,412.1,364.5z"
					/>
				<path class="st9" d="M402.4,841.8c-0.9-6.4-28.4-18-37.3-21.6c-1.8-0.7-3.7-1-5.6-0.9l-8.6,0.6c-4.4,0.3-8.1,3.2-9.5,7.4
					c-1.7,5.1-3.4,11.6-2.7,13.8C340,844.8,403.5,849.4,402.4,841.8z"/>
				<path class="st23" d="M350.8,799l-4,23.4c0,0,15.6,8.1,22.7,2.7l2.7-22.4L350.8,799z"/>
				<path class="st3" d="M352.2,594.4l9.6,113.4l-19.1,94.1c0,0,17.5,13.5,40.7,5.4l18.4-85.6l-7.1-144.5
					C394.6,577.2,363.6,574.4,352.2,594.4z"/>
				<path class="st9" d="M473.6,850c-1-7.1-31.8-19.9-41.7-23.9c-2-0.8-4.1-1.1-6.3-0.9l-9.7,0.8c-4.9,0.4-9.2,3.7-10.7,8.4
					c-1.9,5.8-3.9,13-3.1,15.4C403.5,853.9,474.7,858.5,473.6,850z"/>
				<path class="st23" d="M408.9,805.8l-1.2,23.7c0,0,16.5,6.2,22.8,0V807L408.9,805.8z"/>
				<path class="st29" d="M324.7,525.9c0,0-6.1,26-3.4,36.8s84.2,157.9,84.2,157.9l-3.2,93.4c0,0,25.3,8.8,40.3,0l3.4-101.1
					l-37.7-128.5l15.4-38.3C423.8,546.1,359.6,539.1,324.7,525.9z"/>
				<path class="st7" d="M467.5,386.4c0,0,1.8,65.5-23.3,112.9c0,0,12.9-11.2,23.3-22c10.4-10.8,28.2-62.8,19.6-78.6
					C479,383.9,473.5,379.7,467.5,386.4z"/>
				<g>
					<g>
						<rect x="649.6" y="679.7" class="st9" width="6.1" height="175.1"/>
						
							<rect x="649.6" y="679.7" transform="matrix(-1.836970e-16 1 -1 -1.836970e-16 1419.9026 114.5254)" class="st9" width="6.1" height="175.1"/>
						<g>
							<path class="st7" d="M652.1,854.8c-49.8,0-90.4-40.5-90.4-90.4c0-49.8,40.5-90.4,90.4-90.4c49.8,0,90.4,40.5,90.4,90.4
								C742.5,814.2,701.9,854.8,652.1,854.8z M652.1,685.3c-43.6,0-79.1,35.5-79.1,79.1c0,43.6,35.5,79.1,79.1,79.1
								c43.6,0,79.1-35.5,79.1-79.1C731.2,720.8,695.7,685.3,652.1,685.3z"/>
						</g>
						<g>
							<path class="st30" d="M652.1,832.3c-37.4,0-67.9-30.5-67.9-67.9s30.5-67.9,67.9-67.9c37.4,0,67.9,30.5,67.9,67.9
								S689.5,832.3,652.1,832.3z M652.1,707.8c-31.2,0-56.6,25.4-56.6,56.6s25.4,56.6,56.6,56.6s56.6-25.4,56.6-56.6
								S683.3,707.8,652.1,707.8z"/>
						</g>
					</g>
					<polygon class="st30" points="662.1,730.4 710.3,820.7 777.2,820.7 777.2,815.6 714.5,815.6 667.2,728.1 					"/>
					<polygon class="st30" points="692.8,730.4 741,820.7 808,820.7 808,815.6 745.2,815.6 698,728.1 					"/>
					<path class="st7" d="M711.9,720.5H585.1c-5.6,0-10.2,4.8-9.8,10.5c0.3,5.2,4.9,9.2,10.1,9.2h126.4c5.4,0,9.8-4.4,9.8-9.8v0
						C721.7,724.9,717.3,720.5,711.9,720.5z"/>
					<path class="st31" d="M515.9,720.5c-5.4,0-9.8,4.4-9.8,9.8s4.4,9.8,9.8,9.8h136.6v-19.7H515.9z"/>
					<path class="st32" d="M738,549.9c-2.7,1.6-5.7,2.2-8.7,2.5c0-0.6,0-1.3-0.1-1.9c4.1-2,7.7-5.1,10.2-9c1.6-2.4-2.3-4.6-3.8-2.2
						c-2,3.1-4.8,5.5-7.9,7.1c-0.4-0.7-0.8-1.4-1.3-2c3.4-3.4,5.8-7.6,6.9-12.4c0.7-2.8-3.6-3.9-4.3-1.2c-0.9,4-2.9,7.5-5.6,10.3
						c-0.3-0.3-0.6-0.5-0.9-0.8c0.1-0.3,0.2-0.6,0.4-0.9c1.4-2.9,2.4-6,2.9-9.3c0.1-0.6,0-1.2-0.3-1.6c-0.8-1.8-3.7-2.2-4.1,0.2
						c-0.6,3.4-1.5,6.6-2.8,9.6c-0.1,0.2-0.2,0.5-0.3,0.7c-4.4,1.9-11.6,11.2-11.6,11.2s0,0,1.9-8.7s-2.6-6.2-2.6-6.2
						c-4.8,4.4-6.9,18.9-6.9,18.9l5,14.3c0,0,19.9-3.9,24.2-11.7c4.2-0.2,8.4-0.9,12.1-3.1C742.7,552.2,740.5,548.4,738,549.9z"/>
					<path class="st7" d="M601.4,717.1l-65.6-196.8H478c-3,0-5.4,2.4-5.4,5.4v0c0,3,2.4,5.4,5.4,5.4h46.9l65.4,189.8
						c0.8,2.3,3,3.9,5.5,3.9C599.8,724.7,602.6,720.9,601.4,717.1z"/>
					<g>
						<path class="st7" d="M643.5,722.6H512.1c-8.6,0-16.2-5.6-18.8-13.7l-48.4-153.3c-3.2-10.1,4.3-20.3,14.9-20.3h124.5
							L643.5,722.6z"/>
						<path class="st9" d="M453.5,536.6c-7,3.1-11.1,11.1-8.6,19l48.4,153.3c2.6,8.2,10.2,13.7,18.8,13.7h11.1L469.6,553
							C467.1,545.1,461.1,539.1,453.5,536.6z"/>
						<path class="st7" d="M515.8,722.7l-65.6-196.8h-57.7c-3,0-5.4,2.4-5.4,5.4v0c0,3,2.4,5.4,5.4,5.4h46.9l65.4,189.8
							c0.8,2.3,3,3.9,5.5,3.9C514.2,730.4,517,726.5,515.8,722.7z"/>
						<g>
							<path class="st30" d="M724.4,683.5H580.6c-4.7,0-8.6-3.8-8.6-8.6v-3c0-4.7,3.8-8.6,8.6-8.6h143.8c4.7,0,8.6,3.8,8.6,8.6v3
								C732.9,679.7,729.1,683.5,724.4,683.5z"/>
							<path class="st7" d="M722.9,663.4h-17.4c5.6,0,10.1,4.5,10.1,10.1v0c0,5.6-4.5,10.1-10.1,10.1h17.4c5.6,0,10.1-4.5,10.1-10.1
								v0C732.9,667.9,728.4,663.4,722.9,663.4z"/>
						</g>
						<path class="st31" d="M800.1,797.4c0,0,32.4-27.9,39.9-23.7c7.5,4.2-39.2,58.3-43.4,56.9c-4.2-1.4-14.9-18.7-14.9-18.7
							L800.1,797.4z"/>
						<path class="st31" d="M817.9,786.5l-106.9-102c-3.5-4.1-8.4-6.6-13.8-7.1c-23.5-1.9-88.7-7.1-89.5-5.6c-8.6,16-7.3,29-7.3,29
							l86.7,6.6l106.4,94.9C819.9,803.7,817.9,786.5,817.9,786.5z"/>
						<path class="st3" d="M604.5,528.3l37.1,45.9c6.3,7.8,17.9,8.9,25.5,2.3l32-27.4l11.2,22.8L660.6,621
							c-7.3,7.2-19.1,6.8-25.9-0.8l-34.9-39C599.8,581.2,588.3,537.7,604.5,528.3z"/>
						<path class="st28" d="M785.2,792.7l-89.1-94.9c-9-10.6-22-17-36-17.6l-32.8-1.5c0,0-6.8-122-22.9-150.4
							c0,0-56.8-7.1-102.2,17.4c0,0,9.8,163.1,27,170.5c12.5,5.4,80.2,6.5,116,6.8c14.3,0.1,27.8,6.2,37.2,16.9l74.2,75
							c4.3,5.8,12.2,7.6,18.6,4.3c2.8-1.5,5.9-3.5,8.7-6C789.8,807.7,790.3,798.7,785.2,792.7z"/>
						<path class="st9" d="M785.2,792.7l-89.2-95c-8.9-10.5-21.8-16.9-35.7-17.6c-15.3-0.8-33-1.7-33-1.9c-45.9,0-88.9,0-111.1,0.2
							c3.7,20.5,8,35.6,13,37.7c12.5,5.4,80.2,6.5,116,6.8c14.3,0.1,27.8,6.2,37.2,16.9l74.2,75c4.3,5.8,12.2,7.6,18.6,4.3
							c2.8-1.5,5.9-3.5,8.7-6C789.8,807.7,790.3,798.7,785.2,792.7z"/>
						<path class="st31" d="M823.2,774.2c-6.3-3.5-35.1,13.3-44.2,18.9c-1.8,1.1-3.4,2.6-4.5,4.4l-5.2,8.2
							c-2.7,4.2-2.6,9.5,0.2,13.6c3.4,5,8,11,10.4,11.8C784.1,832.5,830.7,778.4,823.2,774.2z"/>
						<g>
							<g>
								<g>
									<path class="st32" d="M574.4,536.5c0.6-2,0.8-4.1,0.5-6.2l-4.9-33.4l-26.7,1.1l5.2,32.6c1,6.7,19.5,21.9,19.5,21.9
										L574.4,536.5z"/>
									<g>
										<g>
											<path class="st32" d="M584,455.9c-1-0.8-2-1.5-2.9-2.1c-6,19.3-38.9,10.2-46,22.5c-2.1,4.2-3.1,7.2-3.1,7.2
												c-7.5,4-11.4,9.2-6.6,17.2c4.8,7.9,18.7,3.1,18.7,3.1c6.9,16.8,31.5,20.9,50.1,12C612.8,506.8,584,455.9,584,455.9z"/>
										</g>
									</g>
									<path class="st33" d="M535.7,492.8c-0.6-1.1-1.6-2.2-2.8-2.5c-0.3-0.1-0.6-0.1-0.9,0c-0.4,0.2-0.6,0.7-0.7,1.1
										c-0.6,1.9-1.2,4-0.6,5.9c0.5,1.6,3.8,4.8,5.7,3.3C538.2,499.2,536.5,494.3,535.7,492.8z"/>
								</g>
								<g>
									<path class="st26" d="M534.7,484.7c3.3,1.8,8.3,5.4,8.7,10.9l4.8-1c0,0-1.4-17-5.9-19.1c0,0,41.8,5.5,54.9-13.4
										c0,0-7-20.3-18.6-24.1c-11.5-3.8-40.3-1.3-46.6,17.6c0,0-13.4,3-13.6,12.6c-0.3,9.5,5.3,16.8,8.4,19l2.9-2
										C531.1,484,533.1,483.9,534.7,484.7z"/>
								</g>
								<g>
									<circle class="st1" cx="575.4" cy="491.9" r="8.9"/>
								</g>
								<g>
									<circle class="st1" cx="594.3" cy="486.4" r="8.3"/>
								</g>
								<g>
									<polygon class="st1" points="573,491.8 542.7,491.8 541.6,490.1 573,490.4 									"/>
								</g>
								<g>
									<path class="st1" d="M579.6,490.5l-0.9-0.6c0.1-0.1,2.4-3.2,5.6-3.4c1.7-0.1,3.3,0.6,4.9,2.1l-0.8,0.8
										c-1.3-1.3-2.6-1.9-4-1.7C581.7,487.7,579.6,490.4,579.6,490.5z"/>
								</g>
								<g>
									
										<rect x="595.7" y="485.8" transform="matrix(0.9972 -7.423146e-02 7.423146e-02 0.9972 -34.4544 45.7117)" class="st1" width="4.1" height="1.1"/>
								</g>
								<path class="st33" d="M596.9,503.3c-1.3-3.4-4.1-5.8-7.6-6.6c-0.7-0.2-1,0.9-0.3,1.1c3.1,0.7,5.7,2.8,6.8,5.8
									C596.1,504.2,597.1,504,596.9,503.3z"/>
								<path class="st33" d="M580.8,474.2c-4.4,1.5-8.8,2.6-13.4,3.4c-0.7,0.1-0.4,1.2,0.3,1.1c4.6-0.8,9-2,13.4-3.4
									C581.7,475,581.4,474,580.8,474.2z"/>
								<path class="st33" d="M582.4,476.6c-4,1.1-8,1.9-12.1,2.4c-0.7,0.1-0.4,1.2,0.3,1.1c4.1-0.6,8.1-1.4,12.1-2.4
									C583.4,477.5,583.1,476.4,582.4,476.6z"/>
							</g>
							<path class="st19" d="M526,453.8"/>
							<path class="st26" d="M532.3,454.7c-0.1,0.3-0.2,0.5-0.3,0.8c0,0-13.4,3-13.6,12.6c-0.3,9.5,5.3,16.8,8.4,19l2.9-2
								c1.5-1,3.4-1.2,5-0.3c3.3,1.8,8.3,5.4,8.7,10.9l4.8-1c0,0-1.4-17-5.9-19.1c0,0,3.6,0.5,9.1,0.7
								C546.1,461.7,537.9,456.5,532.3,454.7z"/>
						</g>
						<path class="st3" d="M502.3,545.7c0,0-44.6,111-37.1,119.2c7.5,8.2,135.3,4.5,135.3,4.5l-0.6-14.4c0,0-60.3-11.2-89-14.4
							l21.6-41.3C532.4,599.2,538.8,564.1,502.3,545.7z"/>
						<path class="st32" d="M599.8,654.9c0,0-8.5-1.6-20.6-3.7c1.2,3.7,2.1,7.4,3.1,11.2c0.6,2.5,1.3,4.9,1.9,7.4
							c9.9-0.2,16.3-0.4,16.3-0.4L599.8,654.9z"/>
						<polyline class="st26" points="559.3,647.8 563.6,671.8 587.1,671.8 581.1,649.9 						"/>
						<polygon class="st34" points="566.1,539.7 568.2,552.5 559.3,544.6 						"/>
						<polygon class="st26" points="547.3,524.8 566.1,539.7 557.7,554.2 542.1,533.1 						"/>
						<polygon class="st34" points="571.1,538.8 568.2,552.5 577,542.6 						"/>
						<polygon class="st26" points="574.3,525.9 571.1,538.8 579.4,553.3 579.4,530.5 						"/>
						<polygon class="st26" points="699.1,549 710.3,571.8 701.6,588 691.1,556 						"/>
						<path class="st31" d="M510.2,538.8"/>
						<g>
							<path class="st30" d="M616.6,683.5H472.9c-4.7,0-8.6-3.8-8.6-8.6v-3c0-4.7,3.8-8.6,8.6-8.6h143.8c4.7,0,8.6,3.8,8.6,8.6v3
								C625.2,679.7,621.4,683.5,616.6,683.5z"/>
							<path class="st7" d="M615.1,663.4h-17.4c5.6,0,10.1,4.5,10.1,10.1v0c0,5.6-4.5,10.1-10.1,10.1h17.4c5.6,0,10.1-4.5,10.1-10.1
								v0C625.2,667.9,620.7,663.4,615.1,663.4z"/>
						</g>
					</g>
					<g>
						
							<rect x="532.2" y="679.5" transform="matrix(1 7.798460e-03 -7.798460e-03 1 6.0461 -4.1521)" class="st9" width="6.5" height="187.4"/>
						
							<rect x="532.2" y="679.5" transform="matrix(-7.798460e-03 1 -1 -7.798460e-03 1312.8086 243.8126)" class="st9" width="6.5" height="187.4"/>
						<g>
							<path class="st3" d="M534.1,866.9c-53.3-0.4-96.4-44.2-96-97.5c0.4-53.3,44.2-96.4,97.5-96c53.3,0.4,96.4,44.2,96,97.5
								C631.1,824.3,587.4,867.4,534.1,866.9z M535.5,685.5c-46.7-0.4-85,37.3-85.3,84c-0.4,46.7,37.3,85,84,85.3
								c46.7,0.4,85-37.3,85.3-84C619.9,724.2,582.2,685.9,535.5,685.5z"/>
						</g>
						<g>
							<path class="st7" d="M534.3,842.9c-40.1-0.3-72.4-33.2-72.1-73.3c0.3-40.1,33.2-72.4,73.3-72.1c40.1,0.3,72.4,33.2,72.1,73.3
								C607.2,810.9,574.3,843.2,534.3,842.9z M535.3,709.6c-33.4-0.3-60.8,26.7-61.1,60.1c-0.3,33.4,26.7,60.8,60.1,61.1
								s60.8-26.7,61.1-60.1C595.7,737.2,568.7,709.8,535.3,709.6z"/>
						</g>
					</g>
					<path class="st7" d="M655.7,730.4"/>
					<g>
						<path class="st7" d="M819.9,807.3h-27.4c-1.4,0-2.7,0.6-3.5,1.7l-11.7,14.4c-2.4,3-0.3,7.5,3.5,7.5h25.6
							c1.3,0,2.5-0.5,3.3-1.4l13.5-14.4C826,812.1,823.9,807.3,819.9,807.3z"/>
						<path class="st9" d="M784,823.4l11.7-14.4c0.9-1.1,2.2-1.7,3.5-1.7h-6.8c-1.4,0-2.7,0.6-3.5,1.7l-11.7,14.4
							c-2.4,3-0.3,7.5,3.5,7.5h6.8C783.7,830.8,781.6,826.3,784,823.4z"/>
					</g>
					<path class="st32" d="M632.3,668.5c-1.5-5.1-4.7-9.3-9.1-12c-0.5-0.3-1-0.4-1.4-0.3c0,0-0.1-0.1-0.1-0.1
						c-2.3-2.5-21.8-1-21.8-1l-2.1,8.5c8.3,0,6.9,2.8,9.8,4.5c0.5,0.3,1.4,0.5,2.4,0.5c1,2.6,1.5,5.4,0.5,7.4
						c-1.3,2.5,2.5,4.8,3.8,2.2c1.5-2.9,1.2-6.4,0.3-9.7c0.5,0,1-0.1,1.6-0.2c1,3.1,1.5,6.2,0.3,9.4c-1,2.7,3.3,3.8,4.3,1.2
						c1.3-3.8,0.9-7.5-0.2-11.1c0.3-0.1,0.6-0.1,0.9-0.1c1.1,2.9,1.5,6,1.3,9.2c-0.2,2.8,4.2,2.8,4.4,0c0.4-5-0.8-9.8-3.3-14
						c2,1.9,3.4,4.3,4.2,7.1C628.8,672.4,633.1,671.2,632.3,668.5z"/>
				</g>
				<g>
					<path class="st23" d="M444.1,526.5c-1.1-2.1-3.2-3.5-5.3-4.5c-4.5-2.4-9.7-3.5-13.8-6.6c-1.5-1.1-2.9-2.5-4.6-3.1l-66.8-55.9
						c0,0,78-35.3,58.5-91.8l-15.9-0.9c-3.7-0.2-7.2,1.2-9.7,4c-17.9,19.9-91.2,102.2-84.9,106.7c6.9,4.9,87.3,45.3,112.1,51.3
						c1.4,3.9,3.7,7.9,4.7,11.5c0.4,1.6,0.8,3.2,1.7,4.6c0.9,1.4,2.4,2.5,4,2.4c2-0.1,3.6-1.9,5.6-2.4c1.7-0.4,3.6,0.3,5.3-0.1
						c3-0.8,3.9-4.6,6.3-6.6c0.8-0.7,1.7-1.1,2.4-1.8C445.3,531.4,445.2,528.5,444.1,526.5z"/>
					<path class="st8" d="M375.3,443.5c21.4-15,49.4-42.6,36.8-79.1l-15.9-0.9c-3.7-0.2-7.2,1.2-9.7,4c-8.4,9.3-29,32.4-47.8,54.7
						C344.9,428.8,357.5,439.7,375.3,443.5z"/>
				</g>
				<path class="st23" d="M505,515.6c-2.2-0.4-3.9,1.2-4.5,3.2c-1,3.7-0.2,7.6,1.9,10.8c1.1,1.8,3.8,2.1,5.4,0.9
					c1.8-1.3,2-3.6,0.9-5.4c-0.9-1.4-1-3.1-0.5-5.1C508.7,518.1,506.9,515.9,505,515.6z"/>
				<path class="st23" d="M508.7,521.9c1.5-0.4,3.1-0.6,4.6-0.1c1.5,0.5,2.7,2,2.3,3.5c-0.3,1.4-0.9,5-2.2,5.6
					c-3.6,1.7-11.1,3.3-14.6-1.1C495.3,525.6,506.1,522.6,508.7,521.9z"/>
			</g>
			<g>
				<g>
					<path class="st23" d="M874.7,486.3c-3.3,0.4-6.2-2.4-7.8-5.3c-3.6-6.5-3.6-15,0.2-21.5c3.5-6.1,9.8-10.1,15.9-13.6
						c7.1-3.9,14.9-7.5,23-7.3c8.7,0.2,16.9,4.7,22.7,11.2c5.8,6.5,9.3,14.8,11.1,23.2c3.3,14.9,19.8,23.9,32.4,32.6
						c12.9,8.8,25.5,18.5,34.5,31.3c9,12.8,14,29.1,10.1,44.2s-18,28-33.6,27.2c-12.1-0.6-22.8-8.8-29.8-18.7
						c-7.1-9.9-11.3-21.5-16.4-32.5c-10.9-23.5-26.2-44.9-45-62.8C888.2,490.6,880.1,485.6,874.7,486.3z"/>
					<g>
						<path class="st9" d="M895.3,860.5c0.6-6,28.8-12.1,37-15.7c1.6-0.7,5.3-2.3,7.1-2.2l3.5-3.8c4.1,0.2,8.4,4.6,9.8,8.5
							c1.7,4.8,3,9,2.4,11C954.1,861.9,894.5,867.6,895.3,860.5z"/>
						<path class="st9" d="M974.1,852.1c0.6-5.3,25.6-10.8,33-14c1.5-0.6-1.1-4.1,0.5-4l3.2-4.8c3.7,0.2,13.3,7.6,14.5,11.1
							c1.6,4.2,2.7,8,2.1,9.8C1026.5,853.4,973.4,858.5,974.1,852.1z"/>
						<path class="st32" d="M1010.5,827.6L924.9,777c0,0,83.8-66.4,84.5-78.7s-70.7,8.9-70.7,8.9s-68.3,63.8-67,75.5
							c1.2,10.3,107.7,50.6,131.9,59.7c3,1.1,6.3,0.4,8.6-1.8C1015.9,836.7,1015.1,830.3,1010.5,827.6z"/>
						<path class="st8" d="M951.8,754.9c24.6-20.5,57-49,57.5-56.7c0.7-12.3-70.7,8.9-70.7,8.9s-18.5,13.2-27.8,22.3
							c4.2,2.4,15.7,6.1,19.3,9.3C937.7,745.3,947.8,745.8,951.8,754.9z"/>
						<path class="st8" d="M914.7,546.9l-7.7,74.4c0,0-8.2,29.9-8.3,40.6c0,10.7-6.8,27.3-6.8,27.3l16.8,4.7l40.7-140.4
							C949.4,553.4,927.2,543.9,914.7,546.9z"/>
						<path class="st32" d="M898.7,686.2l-6.8,10.2c0,0-14.9,15.2-14.1,16.6s3.3,1.9,3.3,1.9s16.6-13.5,20.4-14.3
							c3.8-0.8,9.2-2.2,9.3-3.7c0.1-1.4-6-8.8-6-8.8L898.7,686.2z"/>
						<path class="st26" d="M891.9,689.2l16.8,4.7l2.4-8.3c-5.1-3.3-9.9-7-14.4-11.1C894.7,682.3,891.9,689.2,891.9,689.2z"/>
						<path class="st9" d="M921.6,521c0,0-10.5,44.3-10,55c0.5,12.6,23.8,14,23.8,14s30.8,52.2,29.5,60.2S849.4,728,855,738.7
							c5.6,10.7,77.5,107.7,77.5,107.7s11.6,1.8,16.9-1.9l-49.1-98.2c0,0,108.9-27.3,119.6-63.5c10.8-36.2-16.3-39.7-24.2-58.5
							C987.8,605.3,986.2,502.4,921.6,521z"/>
						<path class="st8" d="M999.3,630.5c-12.6,3.4-24.5,9.5-34.6,17.8c0.2,0.8,0.2,1.5,0.1,2c-1.3,7.9-115.4,77.8-109.9,88.5
							c5.6,10.7,77.5,107.7,77.5,107.7s11.6,1.8,16.9-1.9l-49.1-98.2c0,0,108.9-27.3,119.6-63.5
							C1029.4,650.9,1009.6,644.4,999.3,630.5z"/>
						<path class="st35" d="M888.3,707.1c-20,14.7-35.4,27.5-33.3,31.6c5.6,10.7,77.5,107.7,77.5,107.7s11.6,1.8,16.9-1.9
							l-49.1-98.2c0,0,9.1-2.3,22.3-6.4C915.1,725.7,902.9,714,888.3,707.1z"/>
						<path class="st35" d="M932.6,491.6c0.1-11.1-6-17.8-11.6-12.2c0,0-15.4,1-8.8,8.2c-6.3,1.4-19.4-3.4-25.2-6.2
							c-5.7-2.7-10.6-6.8-15.1-11.2c-2.3,8-15.6,59.3,27,46l12.7,13.6c0,0,15.6-0.8,20-10.5l-14.1-16.3
							C917.5,502.8,932.5,502.7,932.6,491.6z"/>
						<g>
							<path class="st35" d="M869.9,485.4c0,0-9,14.4-6.2,15.2s6.4,0.7,6.4,0.7L869.9,485.4z"/>
							<path class="st23" d="M913.2,493c1.8,1.9,3.3,4.1,4.5,6.4c0.6-7.7,3.2-15.1,5.8-22.4c-2-0.8-4.3-1.3-6.4-1.4
								c-2.8,0-2,1.6-2.1,4c-0.1,2.3-0.3,4.6-0.6,6.9C914.3,487.3,912.8,492.6,913.2,493z"/>
							<path class="st21" d="M922.9,488.1c0.6-1.1,1.4-2.2,2.7-2.6c0.3-0.1,0.6-0.1,0.9,0c0.4,0.2,0.6,0.6,0.7,1.1
								c0.7,1.9,1.3,3.9,0.8,5.8c-0.4,1.6-3.6,4.9-5.5,3.5C920.6,494.6,922.1,489.7,922.9,488.1z"/>
						</g>
						<path class="st26" d="M924.9,508.2c-10.4,10.2-18.8,22.4-17.8,21.4c0,0,3.2,29.6,8.2,26.4c5-3.2,16.3-36.9,16.3-36.9
							L924.9,508.2z"/>
						<path class="st9" d="M938.6,531l-51.7,86.1l-55.9-31.6l-8.4,13.5c0,0,52.4,51.3,64.3,53.1c10.1,1.6,60-50.6,74.5-66.1
							c2.8-3,12.6-13.3,13.3-17.3C976.8,556.1,964.7,520.9,938.6,531z"/>
					</g>
				</g>
				<path class="st35" d="M792.7,583.4c2.3,1.5,4.8,2.1,7.4,2.4c0-0.5,0.1-1.1,0.2-1.6c-3.5-1.8-6.5-4.6-8.6-8.1
					c-1.3-2.1,2.1-3.9,3.4-1.8c1.7,2.7,3.9,4.9,6.6,6.3c0.4-0.6,0.8-1.2,1.2-1.7c-2.8-3-4.8-6.7-5.6-10.8c-0.5-2.4,3.2-3.3,3.7-0.9
					c0.7,3.4,2.3,6.5,4.6,9c0.3-0.2,0.5-0.4,0.8-0.6c-0.1-0.3-0.2-0.5-0.3-0.8c-1.1-2.5-1.9-5.2-2.2-8.1c-0.1-0.5,0.1-1,0.3-1.4
					c0.7-1.5,3.3-1.7,3.5,0.2c0.4,2.9,1.1,5.7,2.1,8.4c0.1,0.2,0.2,0.4,0.3,0.6c3.7,1.8,9.7,10,9.7,10s0,0-1.4-7.6
					c-1.4-7.6,2.5-5.3,2.5-5.3c4,3.9,5.4,16.5,5.4,16.5l-4.7,12.2c0,0-17-3.9-20.5-10.7c-3.6-0.3-7.2-1-10.4-3.1
					C788.6,585.3,790.6,582.1,792.7,583.4z"/>
				<polygon class="st26" points="840.1,590.7 839,615.6 817.4,598.9 825.3,582.3 				"/>
			</g>
		</g>
	</g>
</g>
</svg>
